<svg width="1440" height="3971" viewBox="0 0 1440 3971" fill="none" xmlns="http://www.w3.org/2000/svg">
<mask id="mask0_37_24" style="mask-type:luminance" maskUnits="userSpaceOnUse" x="0" y="0" width="1512" height="978">
<path d="M0.5 0.5H1511.5V977.011H0.5V0.5Z" fill="white" stroke="white"/>
</mask>
<g mask="url(#mask0_37_24)">
<g opacity="0.6" filter="url(#filter0_f_37_24)">
<path d="M1393.82 22.5634C1447.8 30.6667 1491.49 52.2784 1531.31 82.522C1540.45 89.4633 1550.16 96.3312 1559.93 103.239C1564.13 106.211 1568.34 109.19 1572.53 112.185C1586.44 122.149 1600.02 132.302 1611.81 143.003C1635.42 164.416 1651.76 187.938 1649.37 216.427C1644.02 279.921 1582.41 335.353 1508.12 358.989C1438.7 381.077 1355.37 366.703 1298.58 327.912C1275.83 312.373 1272.34 290.274 1272.18 266.195C1272.15 261.293 1272.25 256.291 1272.36 251.248C1272.51 243.95 1272.66 236.564 1272.4 229.265C1271.96 216.886 1270.33 204.625 1265.46 193.115C1259.05 177.959 1247.38 163.449 1234.18 149.379C1227.57 142.341 1220.57 135.404 1213.64 128.547L1213.21 128.119C1206.43 121.404 1199.72 114.766 1193.51 108.172C1180.83 94.694 1170.28 81.4532 1165.44 68.2142C1160.62 55.0202 1161.47 41.8201 1171.62 28.3297C1191.57 1.82467 1227.78 -2.58058 1268.81 1.17199C1289.3 3.04621 1310.94 6.94979 1332.27 11.1087C1336.81 11.9928 1341.33 12.8886 1345.82 13.7788C1362.45 17.0741 1378.69 20.2931 1393.82 22.5634Z" fill="#4E23FC" fill-opacity="0.25" stroke="black"/>
<path d="M566.511 58.718L566.816 58.3261L536.315 130.771L535.864 130.557C535.864 130.557 535.864 130.557 535.864 130.557C533.579 135.372 533.207 140.343 533.613 145.318C533.904 148.879 534.598 152.478 535.283 156.029C535.551 157.419 535.818 158.802 536.058 160.172C536.918 165.07 537.451 169.84 536.614 174.41C535.78 178.961 533.581 183.342 528.918 187.452L529.249 187.827L528.918 187.452C508.093 205.819 470.643 220.412 429.875 224.087C387.884 227.873 342.296 220.652 308.474 207.281C292.197 200.847 282.054 191.964 273.653 182.315C270.196 178.344 267.037 174.247 263.861 170.128C263.172 169.234 262.481 168.338 261.787 167.443C257.898 162.429 253.889 157.424 249.216 152.656C244.793 148.143 238.554 143.637 231.987 139.152C230.349 138.033 228.691 136.916 227.034 135.799C222.03 132.427 217.037 129.062 212.65 125.694C206.8 121.201 202.112 116.761 199.927 112.372C198.841 110.189 198.386 108.042 198.695 105.915C199.004 103.788 200.086 101.628 202.169 99.4342C207.265 94.0674 216.075 90.7522 226.944 88.5107C237.793 86.2731 250.587 85.1245 263.56 84.0151C264.142 83.9654 264.724 83.9157 265.306 83.866C277.695 82.8089 290.172 81.7442 301.143 79.7543C312.616 77.6733 322.53 74.5669 328.992 69.3299C332.023 66.8734 333.633 64.1367 334.156 61.1964C334.676 58.2689 334.109 55.1958 332.892 52.0732C330.701 46.4485 326.337 40.515 322.107 34.7639C321.657 34.1521 321.209 33.5423 320.765 32.9352C318.445 29.7641 316.236 26.6599 314.504 23.683C312.77 20.7024 311.535 17.885 311.132 15.2888C310.732 12.7107 311.153 10.3601 312.728 8.26054C314.316 6.14357 317.117 4.22926 321.582 2.62727L321.413 2.15665L321.582 2.62727C338.575 -3.4702 355.897 1.94992 373.897 10.0479C378.392 12.07 382.921 14.2548 387.492 16.4636L387.791 16.6076C392.263 18.7683 396.776 20.9489 401.328 23.0136C410.633 27.2345 420.122 30.9816 429.813 33.1039C440.38 35.4184 451.484 36.3394 462.606 37.1863C463.23 37.2338 463.855 37.2811 464.479 37.3284C474.989 38.1248 485.492 38.9205 495.606 40.8197C501.704 41.9648 508.136 42.933 514.586 43.9039L515.296 44.0109C521.988 45.0184 528.686 46.036 535.058 47.2653C547.823 49.7282 559.185 53.026 566.511 58.718Z" fill="#162AB0" fill-opacity="0.3" stroke="black"/>
<path d="M766.511 469.718L766.816 469.326L736.315 541.771L735.864 541.557C735.864 541.557 735.864 541.557 735.864 541.557C733.579 546.372 733.207 551.343 733.613 556.318C733.904 559.879 734.598 563.478 735.283 567.029C735.551 568.419 735.818 569.802 736.058 571.172C736.918 576.07 737.451 580.84 736.614 585.41C735.78 589.961 733.581 594.342 728.918 598.452L729.249 598.827L728.918 598.452C708.093 616.819 670.643 631.412 629.875 635.087C587.884 638.873 542.296 631.652 508.474 618.281C492.197 611.847 482.054 602.964 473.653 593.315C470.196 589.344 467.037 585.247 463.861 581.128C463.172 580.234 462.481 579.338 461.787 578.443C457.898 573.429 453.889 568.424 449.216 563.656C444.793 559.143 438.554 554.637 431.987 550.152C430.349 549.033 428.691 547.916 427.034 546.799C422.03 543.427 417.037 540.062 412.65 536.694C406.8 532.201 402.112 527.761 399.927 523.372C398.841 521.189 398.386 519.042 398.695 516.915C399.004 514.788 400.086 512.628 402.169 510.434C407.265 505.067 416.075 501.752 426.944 499.511C437.793 497.273 450.587 496.125 463.56 495.015C464.142 494.965 464.724 494.916 465.306 494.866C477.695 493.809 490.172 492.744 501.143 490.754C512.616 488.673 522.53 485.567 528.992 480.33C532.023 477.873 533.633 475.137 534.156 472.196C534.676 469.269 534.109 466.196 532.892 463.073C530.701 457.449 526.337 451.515 522.107 445.764C521.657 445.152 521.209 444.542 520.765 443.935C518.445 440.764 516.236 437.66 514.504 434.683C512.77 431.702 511.535 428.885 511.132 426.289C510.732 423.711 511.153 421.36 512.728 419.261C514.316 417.144 517.117 415.229 521.582 413.627L521.413 413.157L521.582 413.627C538.575 407.53 555.897 412.95 573.897 421.048C578.392 423.07 582.921 425.255 587.492 427.464L587.791 427.608C592.263 429.768 596.776 431.949 601.328 434.014C610.633 438.234 620.122 441.982 629.813 444.104C640.38 446.418 651.484 447.339 662.606 448.186C663.23 448.234 663.855 448.281 664.479 448.328C674.989 449.125 685.492 449.921 695.606 451.82C701.704 452.965 708.136 453.933 714.586 454.904L715.296 455.011C721.988 456.018 728.686 457.036 735.058 458.265C747.823 460.728 759.185 464.026 766.511 469.718Z" fill="#162AB0" fill-opacity="0.3" stroke="black"/>
<path d="M973.917 290.026C993.499 288.696 1012.52 284.328 1031.25 280.026C1036.21 278.886 1041.16 277.75 1046.09 276.676C1069.65 271.548 1092.89 267.836 1116.55 271.737C1157.56 278.501 1180.06 300.296 1201.02 320.59C1203.9 323.379 1206.75 326.14 1209.61 328.829C1211.79 330.869 1214.01 332.925 1216.26 334.996C1226.08 344.063 1236.22 353.423 1243.55 362.988C1252.57 374.74 1257.23 386.639 1252.03 398.563C1249.43 404.539 1244.36 409.849 1237.62 414.722C1230.87 419.593 1222.49 424.001 1213.3 428.186C1204.68 432.107 1195.38 435.825 1186.08 439.541C1185.46 439.79 1184.84 440.039 1184.21 440.289C1174.3 444.253 1164.44 448.231 1155.51 452.462C1142.36 458.69 1127.66 463.581 1112.91 468.481L1112.82 468.511C1098.13 473.396 1083.39 478.294 1070.19 484.532C1056.82 490.848 1046.6 499.691 1036.59 508.358C1033.24 511.26 1029.91 514.143 1026.49 516.904C1012.85 527.924 997.706 537.121 973.858 538.327C950.842 539.49 932.069 532.922 914.957 523.916C906.397 519.41 898.258 514.298 890.206 509.236L890.096 509.167C882.087 504.133 874.16 499.149 866.014 494.891C840.162 481.37 816.609 466.929 803.629 449.287C797.787 441.343 797.445 433.012 797.705 424.458C797.735 423.452 797.775 422.443 797.814 421.43C798.107 413.865 798.406 406.13 795.211 398.569C792.769 392.789 788.245 387.206 783.065 381.752C780.472 379.022 777.704 376.315 774.939 373.627C774.685 373.38 774.432 373.134 774.178 372.887C771.666 370.446 769.169 368.02 766.81 365.595C761.607 360.25 757.116 354.959 754.639 349.628C752.174 344.322 751.716 339.006 754.537 333.543C757.311 328.173 762.172 323.252 768.58 318.76C774.985 314.271 782.91 310.229 791.777 306.608C809.51 299.366 830.955 293.828 851.408 289.753C870.724 285.905 891.006 286.665 911.65 288.047C914.738 288.253 917.834 288.474 920.936 288.695C938.553 289.95 956.361 291.218 973.917 290.026Z" fill="#162AB0" fill-opacity="0.2" stroke="black"/>
<path d="M1802.01 624.492C1766.32 674.067 1702.71 711.164 1620.33 742.848C1601.44 750.115 1582.55 757.934 1563.54 765.801C1473.82 802.932 1381.46 841.159 1273.54 827.729C1200.91 818.69 1137.5 796.675 1088.37 767.511C1039.23 738.343 1004.41 702.044 988.914 664.457C974.45 629.368 981.999 592.824 1006.62 559.259C1031.24 525.683 1072.94 495.117 1126.67 472.079C1169.95 453.525 1222.41 454.745 1278.07 459.502C1289.45 460.475 1300.96 461.595 1312.55 462.723C1357.62 467.109 1403.92 471.614 1448.31 468.009C1503.89 463.496 1560.01 447.335 1614.37 431.683C1631.98 426.614 1649.4 421.599 1666.55 417.049C1736.74 398.438 1802.48 387.635 1858.7 412.603C1886.27 424.847 1899.58 439.768 1903.39 456.28C1907.21 472.82 1901.52 491.111 1890.75 510.176C1879.97 529.231 1864.16 548.97 1847.84 568.376C1844.37 572.502 1840.88 576.613 1837.41 580.699C1824.57 595.816 1812.02 610.589 1802.01 624.492Z" fill="#162AB0" fill-opacity="0.22" stroke="black"/>
</g>
<g filter="url(#filter1_d_37_24)">
<path fill-rule="evenodd" clip-rule="evenodd" d="M787.172 546.059C785.817 594.1 810.888 644.786 794.766 687.447C778.876 729.499 739.635 742.576 707.061 758.057C674.98 773.304 639.233 794.06 607.849 776.282C576.466 758.505 565.166 706.473 546.764 667.256C533.156 638.257 527.484 605.087 513.899 576.068C495.606 536.99 450.764 513.73 453.193 467.377C455.536 422.677 497.522 404.03 524.259 378.4C545.427 358.11 567.631 340.209 592.957 333.406C616.031 327.209 638.554 342.844 662.04 341.393C693.685 339.438 725.74 305.263 754.533 323.423C782.494 341.058 795.958 388.223 802.037 429.689C807.795 468.965 788.301 506.023 787.172 546.059Z" fill="#162AB0" fill-opacity="0.18" shape-rendering="crispEdges"/>
<path fill-rule="evenodd" clip-rule="evenodd" d="M1553.24 737.647C1551.88 785.688 1576.95 836.373 1560.83 879.035C1544.94 921.087 1505.7 934.164 1473.12 949.645C1441.04 964.892 1405.3 985.648 1373.91 967.87C1342.53 950.093 1331.23 898.061 1312.83 858.844C1299.22 829.845 1293.55 796.675 1279.96 767.655C1261.67 728.578 1216.83 705.318 1219.26 658.965C1221.6 614.265 1263.59 595.617 1290.32 569.988C1311.49 549.698 1333.69 531.797 1359.02 524.994C1382.09 518.797 1404.62 534.432 1428.1 532.981C1459.75 531.025 1491.8 496.851 1520.6 515.011C1548.56 532.646 1562.02 579.811 1568.1 621.276C1573.86 660.553 1554.36 697.61 1553.24 737.647Z" fill="#162AB0" fill-opacity="0.18" shape-rendering="crispEdges"/>
<path d="M786.672 546.045C786.135 565.085 789.738 584.548 793.284 603.703C794.224 608.78 795.16 613.835 796.014 618.854C800.096 642.858 802.308 666.076 794.299 687.27C780.404 724.038 748.586 738.524 718.904 752.037C714.827 753.893 710.79 755.731 706.846 757.606C703.858 759.026 700.841 760.492 697.802 761.969C684.493 768.438 670.747 775.119 657.055 779.074C640.255 783.926 623.626 784.644 608.096 775.847C592.554 767.044 581.938 749.725 572.895 729.604C568.66 720.182 564.781 710.17 560.902 700.161C560.643 699.492 560.384 698.824 560.125 698.155C555.988 687.486 551.825 676.866 547.216 667.044C540.43 652.581 535.619 637.072 530.801 621.521L530.773 621.431C525.967 605.922 521.148 590.374 514.352 575.856C509.754 566.034 503.494 557.218 496.745 548.804C493.393 544.627 489.918 540.544 486.465 536.487L486.392 536.402C482.914 532.316 479.458 528.255 476.165 524.138C462.994 507.671 452.488 490.391 453.692 467.403C454.854 445.23 465.841 429.505 479.923 416.099C486.968 409.392 494.777 403.276 502.513 397.223L502.624 397.136C510.315 391.118 517.931 385.158 524.605 378.761C545.766 358.477 567.892 340.656 593.087 333.889C604.485 330.828 615.768 333.151 627.219 336.104C628.566 336.451 629.916 336.807 631.268 337.164C641.372 339.831 651.627 342.537 662.071 341.892C670.062 341.398 678.058 338.872 685.981 335.67C689.944 334.068 693.897 332.294 697.826 330.515C698.186 330.352 698.546 330.189 698.906 330.026C702.474 328.41 706.021 326.803 709.549 325.326C725.107 318.813 740.099 314.91 754.266 323.846C768.115 332.58 778.42 348.663 786.026 367.804C793.627 386.934 798.506 409.049 801.542 429.761C804.406 449.301 800.993 468.306 796.699 487.48C796.057 490.346 795.396 493.217 794.732 496.093C790.966 512.434 787.154 528.971 786.672 546.045ZM1552.74 737.633C1552.2 756.673 1555.8 776.136 1559.35 795.292C1560.29 800.368 1561.22 805.423 1562.08 810.442C1566.16 834.446 1568.37 857.664 1560.36 878.858C1546.47 915.626 1514.65 930.112 1484.97 943.625C1480.89 945.481 1476.85 947.319 1472.91 949.193C1469.92 950.613 1466.9 952.08 1463.87 953.557C1450.56 960.025 1436.81 966.707 1423.12 970.661C1406.32 975.514 1389.69 976.232 1374.16 967.435C1358.62 958.631 1348 941.313 1338.96 921.192C1334.72 911.77 1330.84 901.758 1326.97 891.749C1326.71 891.08 1326.45 890.412 1326.19 889.743C1322.05 879.074 1317.89 868.454 1313.28 858.632C1306.49 844.169 1301.68 828.66 1296.86 813.109L1296.84 813.02C1292.03 797.511 1287.21 781.962 1280.42 767.443C1275.82 757.622 1269.56 748.806 1262.81 740.392C1259.46 736.216 1255.98 732.135 1252.53 728.08L1252.46 727.99C1248.98 723.903 1245.52 719.843 1242.23 715.726C1229.06 699.259 1218.55 681.979 1219.76 658.991C1220.92 636.818 1231.9 621.093 1245.99 607.687C1253.03 600.98 1260.84 594.864 1268.58 588.811L1268.69 588.724C1276.38 582.706 1283.99 576.746 1290.67 570.349C1311.83 550.065 1333.96 532.244 1359.15 525.477C1370.55 522.416 1381.83 524.739 1393.28 527.692C1394.63 528.039 1395.98 528.395 1397.33 528.752C1407.44 531.419 1417.69 534.125 1428.13 533.48C1436.13 532.986 1444.12 530.46 1452.04 527.258C1456.01 525.656 1459.96 523.881 1463.89 522.103L1464.97 521.614C1468.54 519.997 1472.08 518.391 1475.61 516.914C1491.17 510.4 1506.16 506.498 1520.33 515.434C1534.18 524.168 1544.48 540.251 1552.09 559.392C1559.69 578.521 1564.57 600.637 1567.61 621.349C1570.47 640.889 1567.06 659.894 1562.76 679.067C1562.12 681.934 1561.46 684.805 1560.8 687.683C1557.03 704.023 1553.22 720.559 1552.74 737.633Z" stroke="black" shape-rendering="crispEdges"/>
</g>
<path fill-rule="evenodd" clip-rule="evenodd" d="M338.786 690.134C335.441 736.211 397.329 784.826 357.533 825.744C318.305 866.078 221.436 878.621 141.025 893.469C61.832 908.093 -26.4121 928.001 -103.886 910.95C-181.358 893.899 -209.252 843.993 -254.679 806.379C-288.271 778.564 -302.273 746.749 -335.808 718.916C-380.967 681.435 -491.663 659.125 -485.666 614.666C-479.883 571.793 -376.237 553.907 -310.235 529.325C-257.979 509.864 -203.166 492.694 -140.648 486.17C-83.6896 480.226 -28.0884 495.222 29.8885 493.83C108.006 491.955 187.137 459.176 258.213 476.594C327.238 493.509 234.094 546.74 249.1 586.511C263.314 624.182 341.573 651.733 338.786 690.134Z" fill="#162AB0" fill-opacity="0.18"/>
<path fill-rule="evenodd" clip-rule="evenodd" d="M1839.79 123.134C1836.44 169.211 1898.33 217.826 1858.53 258.744C1819.3 299.078 1722.44 311.621 1642.02 326.469C1562.83 341.093 1474.59 361.001 1397.11 343.95C1319.64 326.899 1291.75 276.993 1246.32 239.379C1212.73 211.564 1198.73 179.749 1165.19 151.916C1120.03 114.435 1009.34 92.1253 1015.33 47.6661C1021.12 4.79268 1124.76 -13.0928 1190.77 -37.6748C1243.02 -57.1361 1297.83 -74.3059 1360.35 -80.8304C1417.31 -86.7744 1472.91 -71.7783 1530.89 -73.1702C1609.01 -75.0455 1688.14 -107.824 1759.21 -90.4059C1828.24 -73.4914 1735.09 -20.2603 1750.1 19.5106C1764.31 57.1823 1842.57 84.7327 1839.79 123.134Z" fill="#162AB0" fill-opacity="0.18"/>
<path fill-rule="evenodd" clip-rule="evenodd" d="M497.786 181.134C494.441 227.211 556.329 275.826 516.533 316.744C477.305 357.078 380.436 369.621 300.025 384.469C220.832 399.093 132.588 419.001 55.1144 401.95C-22.3581 384.899 -50.2516 334.993 -95.6793 297.379C-129.271 269.564 -143.273 237.749 -176.808 209.916C-221.967 172.435 -332.663 150.125 -326.666 105.666C-320.883 62.7927 -217.237 44.9072 -151.235 20.3252C-98.9793 0.863874 -44.1662 -16.3059 18.3521 -22.8304C75.3104 -28.7744 130.912 -13.7783 188.889 -15.1702C267.006 -17.0455 346.137 -49.8236 417.213 -32.4059C486.238 -15.4914 393.094 37.7397 408.1 77.5106C422.314 115.182 500.573 142.733 497.786 181.134Z" fill="#162AB0" fill-opacity="0.18"/>
</g>
<path fill-rule="evenodd" clip-rule="evenodd" d="M1649.8 2086.64C1646.66 2179.93 1704.81 2278.36 1667.42 2361.2C1630.56 2442.87 1539.55 2468.26 1464 2498.32C1389.6 2527.93 1306.69 2568.24 1233.91 2533.72C1161.12 2499.19 1134.91 2398.15 1092.23 2321.99C1060.68 2265.68 1047.52 2201.27 1016.01 2144.91C973.586 2069.03 869.586 2023.86 875.22 1933.84C880.653 1847.04 978.03 1810.83 1040.04 1761.06C1089.13 1721.65 1140.63 1686.89 1199.37 1673.68C1252.88 1661.64 1305.12 1692.01 1359.59 1689.19C1432.98 1685.39 1507.33 1619.03 1574.1 1654.29C1638.95 1688.54 1551.44 1796.31 1565.54 1876.84C1578.9 1953.11 1652.42 2008.89 1649.8 2086.64Z" fill="#162AB0" fill-opacity="0.18"/>
<path fill-rule="evenodd" clip-rule="evenodd" d="M577.953 2531.78C575.779 2608.02 545.527 2675.26 519.66 2742.97C494.164 2809.71 501.68 2843.65 449.415 2868.22C397.943 2892.42 340.588 2925.36 290.233 2897.14C239.878 2868.93 221.749 2786.36 192.222 2724.12C170.389 2678.09 214.019 2789.02 192.222 2742.97C162.87 2680.95 38.1917 2480.47 42.0894 2406.91C45.848 2335.97 149.323 2327.02 192.222 2286.34C226.186 2254.14 271.314 2276.49 311.948 2265.7C348.969 2255.86 241.367 2271.23 279.05 2268.93C329.823 2265.83 381.256 2211.59 427.452 2240.41C472.316 2268.4 509.907 2294.51 519.66 2360.32C528.899 2422.65 579.765 2468.24 577.953 2531.78Z" fill="#162AB0" fill-opacity="0.18"/>
<path fill-rule="evenodd" clip-rule="evenodd" d="M602.106 1504.72C599.931 1586.64 640.163 1673.08 614.293 1745.84C588.792 1817.55 525.82 1839.85 473.547 1866.25C422.066 1892.26 364.701 1927.65 314.337 1897.33C263.974 1867.02 245.842 1778.28 216.31 1711.4C194.473 1661.95 185.371 1605.38 163.571 1555.89C134.214 1489.25 62.2539 1449.58 66.1523 1370.53C69.9116 1294.3 137.289 1262.5 180.195 1218.8C214.165 1184.19 249.798 1153.66 290.439 1142.06C327.466 1131.5 363.611 1158.16 401.3 1155.68C452.082 1152.35 503.523 1094.07 549.728 1125.04C594.599 1155.11 534.048 1249.76 543.804 1320.47C553.044 1387.45 603.918 1436.44 602.106 1504.72Z" fill="#162AB0" fill-opacity="0.18"/>
<path fill-rule="evenodd" clip-rule="evenodd" d="M953.106 3722.72C950.931 3773.03 991.163 3826.12 965.293 3870.8C939.792 3914.84 876.82 3928.53 824.547 3944.75C773.066 3960.72 715.701 3982.45 665.337 3963.84C614.974 3945.22 596.842 3890.72 567.31 3849.65C545.473 3819.28 536.371 3784.54 514.571 3754.15C485.214 3713.22 413.254 3688.86 417.152 3640.32C420.912 3593.5 488.289 3573.97 531.195 3547.13C565.165 3525.88 600.798 3507.13 641.439 3500.01C678.466 3493.52 714.611 3509.89 752.3 3508.37C803.082 3506.32 854.523 3470.53 900.728 3489.55C945.599 3508.02 885.048 3566.14 894.804 3609.57C904.044 3650.71 954.918 3680.79 953.106 3722.72Z" fill="#162AB0" fill-opacity="0.18"/>
<path fill-rule="evenodd" clip-rule="evenodd" d="M1566.69 3261.62C1563.34 3307.7 1625.23 3356.32 1585.43 3397.23C1546.2 3437.57 1449.34 3450.11 1368.92 3464.96C1289.73 3479.58 1201.49 3499.49 1124.01 3482.44C1046.54 3465.39 1018.65 3415.48 973.221 3377.87C939.629 3350.05 925.627 3318.24 892.092 3290.41C846.933 3252.92 736.237 3230.61 742.234 3186.16C748.017 3143.28 851.663 3125.4 917.665 3100.81C969.921 3081.35 1024.73 3064.18 1087.25 3057.66C1144.21 3051.71 1199.81 3066.71 1257.79 3065.32C1335.91 3063.44 1415.04 3030.67 1486.11 3048.08C1555.14 3065 1461.99 3118.23 1477 3158C1491.21 3195.67 1569.47 3223.22 1566.69 3261.62Z" fill="#162AB0" fill-opacity="0.18"/>
<defs>
<filter id="filter0_f_37_24" x="46.595" y="-151.994" width="2009.99" height="1134.48" filterUnits="userSpaceOnUse" color-interpolation-filters="sRGB">
<feFlood flood-opacity="0" result="BackgroundImageFix"/>
<feBlend mode="normal" in="SourceGraphic" in2="BackgroundImageFix" result="shape"/>
<feGaussianBlur stdDeviation="75.7525" result="effect1_foregroundBlur_37_24"/>
</filter>
<filter id="filter1_d_37_24" x="449.098" y="318.123" width="1124.06" height="664.588" filterUnits="userSpaceOnUse" color-interpolation-filters="sRGB">
<feFlood flood-opacity="0" result="BackgroundImageFix"/>
<feColorMatrix in="SourceAlpha" type="matrix" values="0 0 0 0 0 0 0 0 0 0 0 0 0 0 0 0 0 0 127 0" result="hardAlpha"/>
<feOffset dy="4"/>
<feGaussianBlur stdDeviation="2"/>
<feComposite in2="hardAlpha" operator="out"/>
<feColorMatrix type="matrix" values="0 0 0 0 0 0 0 0 0 0 0 0 0 0 0 0 0 0 0.25 0"/>
<feBlend mode="normal" in2="BackgroundImageFix" result="effect1_dropShadow_37_24"/>
<feBlend mode="normal" in="SourceGraphic" in2="effect1_dropShadow_37_24" result="shape"/>
</filter>
</defs>
</svg>
