<svg xmlns="http://www.w3.org/2000/svg" data-name="Layer 1" viewBox="0 0 128 128" id="ftp"><path d="M107,51.83252h-2.34082A24.80319,24.80319,0,0,0,79.93945,27.60791a24.40642,24.40642,0,0,0-9.01221,1.70166A29.691,29.691,0,0,0,16.57178,52.30713,21.09152,21.09152,0,0,0,21,94H52v4H48.51318a5.23151,5.23151,0,0,0-3.46143,1.36133l-5.8291,5.18457H35a2.0001,2.0001,0,0,0-2,2V112a2,2,0,0,0,4,0v-3.4541h2.39941a3.60827,3.60827,0,0,0,2.395-.93457l5.915-5.26074A1.25287,1.25287,0,0,1,48.51318,102H79.48682a1.25468,1.25468,0,0,1,.80322.34961l5.91309,5.25977a5.43411,5.43411,0,0,0,3.05518.93652H91V112a2,2,0,0,0,4,0v-5.4541a2.0001,2.0001,0,0,0-2-2H89.26514a3.44064,3.44064,0,0,1-.58936-.09082l-5.728-5.09473A5.23316,5.23316,0,0,0,79.48682,98H76V94h31a21.08391,21.08391,0,0,0,0-42.16748ZM72,98H56V94H72Zm35-8H21a17.08376,17.08376,0,0,1-1.57666-34.08643,2.00045,2.00045,0,0,0,1.6792-2.71875A25.68326,25.68326,0,0,1,68.20068,32.75244a1.99959,1.99959,0,0,0,2.68652.94287,20.44384,20.44384,0,0,1,9.05225-2.0874A20.80111,20.80111,0,0,1,100.6665,52.43506c0,.4292-.01758.85449-.043,1.27734a2.00031,2.00031,0,0,0,1.99658,2.12012H107A17.08395,17.08395,0,0,1,107,90Z"></path><path d="M36.99268 38.17236a6.48814 6.48814 0 0 1 2.23975-4.32373 7.672 7.672 0 0 1 5.61621-1.82568 1.99988 1.99988 0 1 0 .30273-3.98828 11.65018 11.65018 0 0 0-8.55371 2.8042 10.47075 10.47075 0 0 0-3.59033 6.98877 2.00037 2.00037 0 0 0 1.82031 2.165c.05859.00488.1167.00732.1748.00732A2.00063 2.00063 0 0 0 36.99268 38.17236zM47.94873 57h-9.863a1.90075 1.90075 0 0 0-1.47955.655A2.13191 2.13191 0 0 0 36 59.1394V76.85956a2.08083 2.08083 0 0 0 .59955 1.53088 2.11525 2.11525 0 0 0 2.97131 0 2.07949 2.07949 0 0 0 .60059-1.53088V71.24963h5.46674a1.92313 1.92313 0 0 0 1.46588-.60754 2.06589 2.06589 0 0 0 .58539-1.49695 2.13 2.13 0 0 0-.5874-1.51788 1.89509 1.89509 0 0 0-1.46387-.62256H40.17145V61.24438h7.77728a1.96257 1.96257 0 0 0 1.45325-.59406A2.02143 2.02143 0 0 0 50 59.1394a2.0962 2.0962 0 0 0-.6026-1.51538A1.91126 1.91126 0 0 0 47.94873 57zM69.70831 57H56.254a2.19793 2.19793 0 0 0-1.60065.63251A2.00112 2.00112 0 0 0 54 59.1394a1.93017 1.93017 0 0 0 .64838 1.50244 2.26449 2.26449 0 0 0 1.60565.60254h4.49243V76.85956a2.01414 2.01414 0 0 0 .63336 1.5249 2.43938 2.43938 0 0 0 3.23987 0 2.01585 2.01585 0 0 0 .63385-1.5249V61.24438h4.45477a2.31625 2.31625 0 0 0 1.64331-.60205A1.93189 1.93189 0 0 0 72 59.1394a2.00239 2.00239 0 0 0-.65289-1.5069A2.24621 2.24621 0 0 0 69.70831 57zM89.65424 59.41522a8.06421 8.06421 0 0 0-2.558-1.76971A7.68128 7.68128 0 0 0 83.98285 57H78.02319a1.90514 1.90514 0 0 0-1.43146.606A2.045 2.045 0 0 0 76 59.098V76.90253a2.03974 2.03974 0 0 0 .59174 1.48993 1.99182 1.99182 0 0 0 2.8634.001 2.04354 2.04354 0 0 0 .59174-1.49091V73.55695h3.936a7.67319 7.67319 0 0 0 3.1134-.64551 8.05876 8.05876 0 0 0 2.558-1.76971 8.47848 8.47848 0 0 0 0-11.7265zm-2.01007 7.4541a4.20982 4.20982 0 0 1-.85333 1.29053 3.97752 3.97752 0 0 1-1.27368.88135 3.78409 3.78409 0 0 1-1.5343.3208h-3.936V61.19391h3.936a3.80485 3.80485 0 0 1 1.53479.3208 4.00257 4.00257 0 0 1 1.27319.88232A4.14455 4.14455 0 0 1 87.95313 65.278 4.07791 4.07791 0 0 1 87.64417 66.86932z"></path></svg>