<svg width="100" height="100" viewBox="0 0 100 100" fill="none" xmlns="http://www.w3.org/2000/svg">
<g clip-path="url(#clip0_15_904)">
<path d="M98.1667 45.5417L54.4167 1.79171C53.2244 0.660439 51.6435 0.0297852 50 0.0297852C48.3565 0.0297852 46.7756 0.660439 45.5833 1.79171L37.25 10.125C37.0547 10.3187 36.8997 10.5491 36.794 10.803C36.6882 11.0569 36.6338 11.3292 36.6338 11.6042C36.6338 11.8792 36.6882 12.1515 36.794 12.4054C36.8997 12.6593 37.0547 12.8897 37.25 13.0834L44.75 20.8334C45.0389 21.1218 45.4061 21.319 45.8062 21.4005C46.2062 21.482 46.6213 21.4442 47 21.2917C48.2704 20.8014 49.6417 20.6298 50.9937 20.7921C52.3458 20.9544 53.6375 21.4456 54.7558 22.2226C55.8741 22.9997 56.7849 24.039 57.4086 25.2495C58.0323 26.4601 58.3498 27.805 58.3333 29.1667C58.3227 30.2248 58.1105 31.2713 57.7083 32.25C57.5559 32.6287 57.518 33.0439 57.5995 33.4439C57.681 33.8439 57.8782 34.2112 58.1667 34.5L65.5 41.6667C65.7889 41.9551 66.1561 42.1524 66.5562 42.2338C66.9562 42.3153 67.3713 42.2775 67.75 42.125C69.4012 41.4677 71.2192 41.3554 72.9387 41.8047C74.6582 42.2539 76.189 43.2411 77.3077 44.622C78.4263 46.003 79.0742 47.7054 79.1566 49.4807C79.2391 51.256 78.7518 53.0112 77.766 54.4899C76.7802 55.9686 75.3475 57.0934 73.677 57.7001C72.0066 58.3068 70.186 58.3636 68.481 57.8621C66.776 57.3607 65.276 56.3273 64.1999 54.9128C63.1239 53.4984 62.5283 51.777 62.5 50C62.5129 48.9867 62.7106 47.9841 63.0833 47.0417C63.227 46.6684 63.2601 46.2617 63.1788 45.8702C63.0976 45.4786 62.9053 45.1186 62.625 44.8334L55.625 37.7917C55.3338 37.5062 54.9652 37.3124 54.565 37.2344C54.1647 37.1564 53.7503 37.1976 53.3732 37.3529C52.9961 37.5082 52.6729 37.7707 52.4436 38.1079C52.2143 38.4452 52.0891 38.8423 52.0833 39.25V61.25C52.0819 61.6566 52.1995 62.0548 52.4216 62.3954C52.6437 62.7359 52.9607 63.0041 53.3333 63.1667C55.088 63.9325 56.5255 65.2791 57.404 66.9801C58.2826 68.6811 58.5487 70.6328 58.1575 72.5069C57.7664 74.381 56.7419 76.0633 55.2562 77.2709C53.7706 78.4785 51.9145 79.1377 50 79.1377C48.0855 79.1377 46.2294 78.4785 44.7438 77.2709C43.2581 76.0633 42.2336 74.381 41.8424 72.5069C41.4513 70.6328 41.7174 68.6811 42.5959 66.9801C43.4745 65.2791 44.912 63.9325 46.6667 63.1667C47.0393 63.0041 47.3562 62.7359 47.5784 62.3954C47.8005 62.0548 47.9181 61.6566 47.9167 61.25V38.6667C47.9181 38.2601 47.8005 37.862 47.5784 37.5214C47.3562 37.1808 47.0393 36.9127 46.6667 36.75C44.6957 35.8863 43.1352 34.2936 42.312 32.3054C41.4887 30.3172 41.4665 28.0876 42.25 26.0834C42.3784 25.6985 42.3916 25.2844 42.2879 24.8921C42.1843 24.4998 41.9684 24.1463 41.6667 23.875L34.125 16.1667C33.9313 15.9714 33.7009 15.8164 33.447 15.7107C33.1932 15.6049 32.9209 15.5505 32.6458 15.5505C32.3708 15.5505 32.0985 15.6049 31.8446 15.7107C31.5908 15.8164 31.3603 15.9714 31.1667 16.1667L2 45.3334C0.829578 46.5052 0.172165 48.0938 0.172165 49.75C0.172165 51.4063 0.829578 52.9948 2 54.1667L45.75 97.9584C46.9219 99.1288 48.5104 99.7862 50.1667 99.7862C51.8229 99.7862 53.4115 99.1288 54.5833 97.9584L98.3333 54.1667C99.5037 52.9948 100.161 51.4063 100.161 49.75C100.161 48.0938 99.5037 46.5052 98.3333 45.3334L98.1667 45.5417Z" fill="#E5E3E3"/>
</g>
<defs>
<clipPath id="clip0_15_904">
<rect width="100" height="100" fill="white"/>
</clipPath>
</defs>
</svg>
