<svg width="90" height="90" viewBox="0 0 90 90" fill="none" xmlns="http://www.w3.org/2000/svg">
<g clip-path="url(#clip0_15_873)">
<path fill-rule="evenodd" clip-rule="evenodd" d="M68.976 82.944C61.1235 82.944 56.0475 79.2 53.5725 74.304L60.4575 70.317C62.271 73.278 64.6245 75.4515 68.796 75.4515C72.297 75.4515 74.5335 73.701 74.5335 71.2845C74.5335 67.6485 69.6825 66.2265 66.258 64.7595C60.156 62.163 56.106 58.9005 56.106 52.011C56.106 45.6705 60.939 40.8375 68.4945 40.8375C73.8675 40.8375 77.7375 42.7095 80.514 47.601L73.9305 51.831C72.4815 49.2345 70.911 48.2085 68.4945 48.2085C66.015 48.2085 64.4445 49.779 64.4445 51.831C64.4445 54.369 66.015 55.395 69.642 56.9655C77.2425 60.2235 82.9935 62.784 82.9935 71.163C82.9935 78.777 77.013 82.944 68.976 82.944ZM49.5 70.1955C49.5 78.957 44.1045 83.5875 36.612 83.5875C29.844 83.5875 25.7895 81 23.796 76.5H23.679L30.5595 71.6895C31.887 74.043 33.084 75.7125 35.982 75.7125C38.763 75.7125 40.5 74.304 40.5 70.0785V40.5H49.5V70.1955ZM0 90H90V0H0V90Z" fill="#E5E3E3"/>
</g>
<defs>
<clipPath id="clip0_15_873">
<rect width="90" height="90" fill="white"/>
</clipPath>
</defs>
</svg>
