<svg width="100" height="100" viewBox="0 0 100 100" fill="none" xmlns="http://www.w3.org/2000/svg">
<g clip-path="url(#clip0_15_875)">
<path d="M6.32792 23.4916C-2.49608 36.7 -1.39608 53.8833 5.34392 67.9208C5.50392 68.2541 5.66392 68.5875 5.83592 68.9208C5.93992 69.1291 6.03992 69.3458 6.15592 69.55C6.21592 69.675 6.28792 69.7958 6.35192 69.9125C6.46792 70.1375 6.58392 70.35 6.70392 70.5791C6.91725 70.9625 7.13059 71.3444 7.34392 71.725C7.46392 71.9333 7.58392 72.1458 7.71192 72.3541C7.95459 72.7625 8.20259 73.168 8.45592 73.5708C8.55992 73.7458 8.66392 73.9041 8.77592 74.0791C9.12792 74.625 9.48792 75.1708 9.85592 75.7041L9.88792 75.7458C9.94392 75.8333 10.0119 75.9166 10.0719 76.0041C10.3919 76.4625 10.7119 76.9208 11.0559 77.3708L11.4279 77.8625C11.7266 78.2541 12.0306 78.643 12.3399 79.0291L12.6879 79.4625C13.0999 79.9708 13.5239 80.4625 13.9679 80.9708L13.9919 80.9958L14.0399 81.05C14.4639 81.5291 14.8959 82 15.3199 82.4666L15.7319 82.9C16.0719 83.2541 16.4119 83.6041 16.7639 83.95C16.9039 84.0916 17.0439 84.2333 17.1879 84.3666C17.6519 84.825 18.1239 85.2708 18.5999 85.7C18.6079 85.7083 18.6119 85.7166 18.6239 85.7208C18.7039 85.7958 18.7919 85.8666 18.8719 85.9375C19.2986 86.318 19.7253 86.6944 20.1519 87.0666L20.6839 87.5083C21.0359 87.8027 21.3919 88.093 21.7519 88.3791L22.3239 88.8333C22.7199 89.1375 23.1199 89.4375 23.5239 89.725C23.6719 89.8333 23.8119 89.9416 23.9639 90.0583L24.0839 90.1499C24.4679 90.4249 24.8599 90.6916 25.2479 90.9541C25.4159 91.0708 25.5679 91.1916 25.7519 91.2875C26.3519 91.6791 26.9599 92.075 27.5759 92.45L28.0799 92.7458C28.5319 93.0208 28.9839 93.2875 29.4479 93.5458C29.6959 93.6875 29.9519 93.8208 30.2039 93.9541C30.5239 94.1333 30.8439 94.3125 31.1839 94.4833L31.4119 94.5958L31.8119 94.8C32.3239 95.0555 32.8413 95.3055 33.3639 95.55L33.6839 95.7041C34.2812 95.9763 34.8853 96.2389 35.4959 96.4916L35.9359 96.6708C36.4999 96.8958 37.0719 97.1208 37.6439 97.3375L37.8599 97.4125C38.4999 97.6416 39.1399 97.8541 39.7799 98.0625L40.2399 98.2041C40.7519 98.3958 41.4079 98.5958 42.0839 98.7541L42.2079 98.7791C84.8759 106.883 97.2719 72.0708 97.2719 72.0708C86.8639 86.1958 68.3839 89.925 50.8719 85.775C50.2079 85.6166 49.5679 85.4041 48.9159 85.2041L48.4279 85.05C47.7879 84.8472 47.1613 84.6347 46.5479 84.4125L46.2879 84.3166C45.7319 84.1125 45.1759 83.8958 44.6319 83.675L44.1679 83.4833C43.5679 83.2375 42.9679 82.975 42.3759 82.7083L42.0159 82.5416C41.5079 82.2999 41.0039 82.0625 40.5039 81.8125L40.0679 81.5916C39.6759 81.3916 39.2879 81.1833 38.8999 80.9708C38.6399 80.8291 38.3759 80.6958 38.1199 80.5458C37.6479 80.2833 37.1839 80.0041 36.7199 79.725L36.2479 79.45C35.6319 79.075 35.0239 78.6791 34.4239 78.2875C34.2559 78.1791 34.1039 78.0625 33.9319 77.9541C33.4959 77.6625 33.0599 77.3625 32.6319 77.0541C32.4919 76.9583 32.3519 76.8458 32.2119 76.7458C31.7986 76.443 31.3893 76.1347 30.9839 75.8208C30.7999 75.6791 30.6199 75.5333 30.4399 75.3916C30.0679 75.0958 29.6959 74.8 29.3319 74.4875L28.8399 74.075C28.3759 73.675 27.9159 73.2791 27.4599 72.8666L27.3079 72.7333C26.8199 72.2833 26.3479 71.825 25.8599 71.3583L25.4519 70.95C25.0973 70.6 24.7506 70.2458 24.4119 69.8875L24.0039 69.4625C23.5773 68.9986 23.1506 68.5291 22.7239 68.0541L22.6599 67.9833C22.2199 67.4791 21.7879 66.9666 21.3639 66.4458L21.0319 66.0208C20.7119 65.625 20.3919 65.225 20.0999 64.8208C19.9839 64.6791 19.8679 64.5291 19.7559 64.3791C19.3879 63.8833 19.0279 63.3791 18.6759 62.8875C8.95592 49.0791 5.46392 30.0291 13.2359 14.3875L6.32792 23.4916Z" fill="#E5E3E3"/>
<path d="M33.716 12.3584C30.7 17.2167 28.908 23.1583 28.908 29.5292C28.908 35.1417 30.296 40.4167 32.74 45.0042L32.66 44.8417C33.6 46.7459 34.536 48.3542 35.568 49.8834L35.48 49.75C36.456 51.3625 37.54 52.7625 38.76 54.0167L38.764 54.0209C39.224 54.5459 39.704 55.0625 40.196 55.5667C40.32 55.7 40.444 55.825 40.572 55.9584C41.048 56.4375 41.532 56.9125 42.036 57.3709C42.056 57.3875 42.076 57.4125 42.096 57.425C42.648 57.9333 43.224 58.425 43.804 58.8959L44.192 59.2125C44.776 59.6792 45.368 60.1375 45.976 60.5709L46.028 60.6125C46.296 60.8042 46.572 60.9875 46.844 61.1709C46.976 61.2625 47.1 61.3542 47.232 61.4375C47.668 61.7292 48.108 62.0125 48.556 62.2834L48.74 62.3959C49.128 62.6292 49.516 62.8542 49.912 63.0625C50.048 63.1417 50.188 63.2125 50.328 63.2875C50.6 63.4334 50.872 63.5834 51.148 63.7292L51.268 63.7875C51.832 64.0792 52.396 64.3542 52.976 64.6167C53.1 64.675 53.224 64.725 53.352 64.7792C53.812 64.9834 54.284 65.1834 54.752 65.3709L55.352 65.6C55.776 65.7625 56.208 65.9167 56.632 66.0667L57.216 66.2584C57.72 66.4584 58.34 66.65 58.98 66.8L59.076 66.8167C92.02 72.5042 99.628 46.0792 99.628 46.0792C92.772 56.3625 79.492 61.2709 65.328 57.4417C64.688 57.2667 64.08 57.0834 63.464 56.8792C63.276 56.8209 63.088 56.7542 62.904 56.6875C62.464 56.5417 62.032 56.3792 61.6 56.2167L61.012 55.9917C60.54 55.8 60.072 55.6042 59.608 55.4C59.48 55.3417 59.352 55.2917 59.232 55.2334C58.648 54.9709 58.076 54.6917 57.512 54.4042C57.22 54.2542 56.936 54.0959 56.652 53.9459L56.156 53.6792C55.788 53.4709 55.424 53.257 55.064 53.0375C54.98 52.9875 54.892 52.9375 54.804 52.8834C54.3587 52.6111 53.9187 52.3306 53.484 52.0417C53.348 51.95 53.22 51.8542 53.088 51.7667C52.8 51.575 52.516 51.375 52.232 51.175C51.624 50.7375 51.036 50.2834 50.452 49.8167L50.052 49.4834C43.856 44.4375 39.18 37.6375 36.692 29.8042L36.612 29.5125C35.668 26.6209 35.12 23.2875 35.12 19.825C35.12 14.25 36.532 9.01668 39.008 4.49585L38.932 4.65002L33.716 12.3584Z" fill="#E5E3E3"/>
<path d="M56.752 4.04168C54.736 7.15418 53.536 10.9917 53.536 15.1209C53.536 18.1 54.16 20.925 55.28 23.4625L55.232 23.3375C58.152 30.1167 63.468 35.3209 70.028 37.8542L70.208 37.9167C70.48 38.025 70.748 38.1167 71.028 38.2125L71.388 38.3292C71.7 38.45 72.092 38.5709 72.492 38.6667L72.56 38.6792C90.748 42.3459 95.684 28.9542 97 26.9875C92.676 33.4709 85.416 35.025 76.504 32.775C75.8 32.5959 75.024 32.3334 74.348 32.0792C73.3 31.6917 72.452 31.3167 71.632 30.9L71.788 30.9709C70.076 30.1 68.608 29.1542 67.244 28.0667L67.308 28.1167C59.332 21.8125 54.38 9.78335 59.584 -0.00415039L56.752 4.04168Z" fill="#E5E3E3"/>
</g>
<defs>
<clipPath id="clip0_15_875">
<rect width="100" height="100" fill="white"/>
</clipPath>
</defs>
</svg>
