<svg width="50" height="120" viewBox="0 0 50 120" fill="none" xmlns="http://www.w3.org/2000/svg">
<g clip-path="url(#clip0_15_902)">
<path d="M48.0091 47.59C42.2682 19.79 28.7273 10.655 27.2727 7.16C26.0818 5.12 24.9636 2.765 24.0409 0.3L23.9409 0C23.9409 0.095 23.9409 0.155 23.9182 0.245V0.31V0.505V0.58V0.71V0.84V0.9C23.9182 0.9 23.9182 0.945 23.9182 0.965V0.96V1.065C23.9182 1.08 23.9227 1.1 23.9227 1.12C23.9227 1.14 23.9227 1.155 23.9182 1.175V1.275V1.435L23.8773 1.685V1.735V1.765C23.8773 1.765 23.8773 1.785 23.8773 1.795V2H23.8546V2.08H23.6909V2.365H23.6636V2.595H23.5546V2.785V2.8C23.5546 2.8 23.5546 2.81 23.5546 2.815V2.865V2.89C23.5546 2.89 23.5546 2.905 23.5546 2.915L23.45 3L23.4273 3.035V3.145H23.4046V3.235H23.3773V3.46H23.35V3.555H23.3273V3.645H23.3046V3.755H23.1V3.83H23.0773V3.925H23.0546V4H23.0273V4.115H23.0046V4.145V4.16C23.0046 4.16 23.0046 4.17 23.0046 4.18C22.9182 4.225 22.8455 4.285 22.7818 4.35C22.7682 4.365 22.7546 4.38 22.7409 4.4V4.69H22.7182V4.65H22.6955V4.7H22.6727V4.74H22.65V4.85H22.3727V4.9H22.3273V5H22.1909V5.05H22.1682V5.08H22.1227V5.13H21.9864V5.16H21.9636V5.45H21.9364V5.5H21.9136V5.53H21.8909V5.56C21.8727 5.59 21.85 5.615 21.8273 5.64L21.7727 5.69C21.7091 5.74 21.65 5.795 21.5955 5.85C21.5591 5.88 21.5273 5.905 21.4955 5.935L21.2727 6.13L20.9364 6.44C20.6773 6.675 20.4046 6.94 20.0909 7.235C19.3227 7.975 18.4091 8.925 17.3636 10.075L17.2955 10.15C7.14092 22.02 0.76365 37.915 0.345468 55.445V55.535C0.309104 56.31 0.286377 57.215 0.286377 58.125C0.286377 59.225 0.318195 60.32 0.377286 61.405L0.372741 61.255V61.3C0.881832 70.125 3.22729 78.245 6.99092 85.34L6.86365 85.08C8.26365 87.78 9.65456 90.075 11.1727 92.255L11.0727 92.105C14.3773 96.92 18.1409 101.08 22.3591 104.62L22.5 104.735C23.6591 108.565 24.3318 112.97 24.3318 117.55C24.3318 117.93 24.3273 118.31 24.3182 118.685V118.63L27.2455 119.705C27.1227 118.19 27.05 116.43 27.05 114.655C27.05 111.99 27.2091 109.365 27.5136 106.795L27.4864 107.1C27.7818 105.815 28.3318 104.7 29.0773 103.78L29.0727 103.79C30.4273 102.725 31.6136 101.67 32.7364 100.535L32.7091 100.565C32.7909 100.47 32.8364 100.385 32.9091 100.295C43.0318 89.845 49.3364 75.04 49.3364 58.61C49.3364 54.605 48.9636 50.7 48.25 46.925L48.3091 47.295L48.0091 47.59Z" fill="#E5E3E3"/>
</g>
<defs>
<clipPath id="clip0_15_902">
<rect width="50" height="120" fill="white"/>
</clipPath>
</defs>
</svg>
