<svg width="108" height="108" viewBox="0 0 108 108" fill="none" xmlns="http://www.w3.org/2000/svg">
<g clip-path="url(#clip0_15_899)" filter="url(#filter0_d_15_899)">
<path d="M54.6619 100C54.6571 100 54.6524 100 54.6476 100C53.0333 100 51.5238 99.6209 50.2286 98.9542L50.2714 98.9751L36.2857 91.7375C34.2 90.7126 35.219 90.3542 35.9048 90.1417C38.3143 89.4792 40.4095 88.6209 42.3429 87.5667L42.2286 87.6251C42.3619 87.5709 42.5143 87.5417 42.6762 87.5417C42.8952 87.5417 43.1 87.6001 43.2714 87.7001L43.2667 87.6959L54.0095 93.275C54.1952 93.3625 54.419 93.4167 54.6571 93.4167C54.8952 93.4167 55.119 93.3625 55.3143 93.2709L55.3048 93.275L97.181 72.1209C97.5667 71.9126 97.819 71.5459 97.819 71.1292C97.819 71.125 97.819 71.1251 97.819 71.1209V28.8417C97.8143 28.4209 97.5571 28.05 97.1714 27.8459L97.1667 27.8417L55.3048 6.70837C55.1191 6.61671 54.8952 6.56254 54.6619 6.56254C54.4286 6.56254 54.2048 6.61671 54.0095 6.71254L54.0143 6.70837L12.1619 27.8459C11.7667 28.05 11.5048 28.4209 11.5 28.8459V71.1334C11.5 71.5542 11.7619 71.9167 12.1524 72.1084L12.1571 72.1125L23.6333 77.9125C29.8571 80.6376 33.6667 77.4292 33.6667 74.2084V32.45C33.6667 31.8667 34.2095 31.3917 34.8762 31.3917H34.8905H40.2C40.8667 31.3917 41.4143 31.8625 41.4143 32.45V74.2084C41.4143 81.4792 36.8905 85.65 29.0143 85.65C28.919 85.65 28.8095 85.6542 28.7 85.6542C25.2476 85.6542 22.0238 84.8 19.2905 83.3209L8.38572 77.8292C5.7381 76.4626 3.99524 73.9834 3.99524 71.1417V28.8459C4 26.0125 5.74762 23.5417 8.34762 22.2L8.39048 22.1792L50.2714 1.00421C51.5429 0.383374 53.0571 0.020874 54.6714 0.020874C56.2857 0.020874 57.8048 0.387541 59.119 1.02504L59.0714 1.00421L100.948 22.1792C103.59 23.5417 105.333 26.0125 105.343 28.8459V71.1376C105.338 73.9751 103.59 76.4542 100.986 77.8042L100.943 77.8251L59.0762 98.9834C57.819 99.6292 56.3048 100.008 54.6857 100.008C54.6762 100.008 54.6619 100.008 54.6524 100.008L54.6619 100Z" fill="#E5E3E3"/>
<path d="M67.6 70.8709C49.2762 70.8709 45.4333 63.5126 45.4333 57.3334V57.3292C45.4333 56.7459 45.9714 56.2751 46.6381 56.2751H46.6476H52.0619C52.6667 56.2751 53.1714 56.6626 53.2667 57.1667C54.081 61.9917 56.519 64.4292 67.6 64.4292C76.4238 64.4292 80.1714 62.6834 80.1714 58.5876C80.1714 56.2251 79.1095 54.4751 65.4 53.3001C53.9429 52.3001 46.8571 50.0917 46.8571 42.0709C46.8571 34.6792 53.981 30.2667 65.9048 30.2667C79.3238 30.2667 85.9619 34.3417 86.8 43.0834C86.8048 43.1126 86.8048 43.1459 86.8048 43.1751C86.8048 43.7626 86.2619 44.2334 85.5952 44.2334H80.2C79.6286 44.2334 79.1476 43.8792 79.0286 43.4084V43.4001C77.7238 38.3251 74.5524 36.7042 65.9524 36.7042C56.319 36.7042 55.2 39.6417 55.2 41.8376C55.2 44.5042 56.5238 45.2792 69.5286 46.7834C82.3952 48.2751 88.5095 50.3792 88.5095 58.2917C88.4905 66.2876 80.8857 70.8626 67.6143 70.8626L67.6 70.8709Z" fill="#E5E3E3"/>
</g>
<defs>
<filter id="filter0_d_15_899" x="0" y="0" width="108" height="108" filterUnits="userSpaceOnUse" color-interpolation-filters="sRGB">
<feFlood flood-opacity="0" result="BackgroundImageFix"/>
<feColorMatrix in="SourceAlpha" type="matrix" values="0 0 0 0 0 0 0 0 0 0 0 0 0 0 0 0 0 0 127 0" result="hardAlpha"/>
<feOffset dy="4"/>
<feGaussianBlur stdDeviation="2"/>
<feComposite in2="hardAlpha" operator="out"/>
<feColorMatrix type="matrix" values="0 0 0 0 0 0 0 0 0 0 0 0 0 0 0 0 0 0 0.25 0"/>
<feBlend mode="normal" in2="BackgroundImageFix" result="effect1_dropShadow_15_899"/>
<feBlend mode="normal" in="SourceGraphic" in2="effect1_dropShadow_15_899" result="shape"/>
</filter>
<clipPath id="clip0_15_899">
<rect width="100" height="100" fill="white" transform="translate(4)"/>
</clipPath>
</defs>
</svg>
