<svg width="100" height="100" viewBox="0 0 100 100" fill="none" xmlns="http://www.w3.org/2000/svg">
<g clip-path="url(#clip0_15_893)">
<path d="M70.16 69.7708C73.732 69.4 76.5 66.2833 76.5 62.4958C76.5 62.3458 76.496 62.1958 76.488 62.0458V62.0667C76.3 58.0542 73.152 54.875 69.284 54.8333H69.024C65.152 54.9833 62.068 58.2875 62.068 62.3417C62.068 62.4333 62.068 62.525 62.072 62.6208V62.6083C62.176 64.5792 62.952 66.3458 64.16 67.6792L64.156 67.675C59.408 76.9 52.152 84.175 43.34 88.6375L43.064 88.7625C38.296 91.5125 32.608 93.1292 26.556 93.1292C25.024 93.1292 23.512 93.025 22.036 92.825L22.212 92.8458C16.768 92.3 12.08 89.3292 9.10401 84.9958L9.06801 84.9375C6.92001 81.7917 5.63601 77.875 5.63601 73.6417C5.63601 70.1542 6.50801 66.8792 8.04001 64.0375L7.99201 64.1375C10.18 59.8208 13.164 56.2292 16.768 53.4625L16.852 53.4042C16.168 51.5167 15.556 49.2417 15.124 46.9042L15.08 46.6292C-3.65199 60.5833 -1.75199 79.6708 3.93601 88.6917C8.90801 95.3 16.572 99.5083 25.18 99.5083C25.572 99.5083 25.96 99.5 26.348 99.4833H26.292C26.432 99.4875 26.6 99.4875 26.768 99.4875C29.356 99.4875 31.872 99.175 34.288 98.5875L34.064 98.6333C50.096 95.575 63.224 84.8125 69.96 70.2417L70.088 69.9333L70.16 69.7708Z" fill="#E5E3E3"/>
<path d="M92.72 53.3292C83.108 41.9125 69.08 34.7458 53.44 34.7458C52.964 34.7458 52.484 34.7542 52.012 34.7667H52.084H49.932C48.8 32.4042 46.492 30.8083 43.828 30.8083C43.748 30.8083 43.672 30.8083 43.592 30.8125H43.604H43.448C39.584 30.8708 36.472 34.1458 36.472 38.1792C36.472 38.3 36.476 38.4167 36.48 38.5333V38.5167C36.66 42.5292 39.808 45.7167 43.68 45.7584H43.996C46.852 45.6417 49.264 43.7917 50.304 41.2L50.32 41.15H52.66C62.876 41.1625 72.356 44.4292 80.196 50.0167L80.028 49.9042C86.152 53.9875 90.88 59.8542 93.596 66.8L93.68 67.0417C94.72 69.3 95.324 71.95 95.324 74.7458C95.324 77.7042 94.648 80.4958 93.444 82.9625L93.488 82.8583C90.38 89.4667 83.972 93.9333 76.564 93.9333C76.292 93.9333 76.024 93.9292 75.756 93.9167H75.796C71.248 93.8167 66.956 92.775 63.064 90.9708L63.272 91.0583C61.756 92.375 59.228 94.5417 57.392 95.8625C62.248 98.3458 67.944 99.8583 73.964 100.004H74.012C74.248 100.013 74.524 100.017 74.8 100.017C85.008 100.017 93.948 94.3708 98.904 85.9167L98.976 85.7875C100.344 82.4084 101.136 78.4833 101.136 74.3625C101.136 66.1125 97.952 58.6375 92.796 53.2L92.8 53.2042L92.74 53.3375L92.72 53.3292Z" fill="#E5E3E3"/>
<path d="M27.376 72.15C27.552 76.1667 30.708 79.3625 34.588 79.3917H34.844C38.716 79.2542 41.808 75.9458 41.808 71.8917C41.808 67.7667 38.612 64.4167 34.656 64.3875H34.388C34.348 64.3833 34.3 64.3833 34.256 64.3833C33.964 64.3833 33.684 64.4292 33.42 64.5208L33.44 64.5167C29.16 57.2625 26.628 48.475 26.628 39.0708C26.628 37.5542 26.692 36.0542 26.824 34.575L26.812 34.7667C27.176 26.825 29.976 19.6292 34.44 13.9042L34.392 13.9708C38.356 9.50833 43.94 6.66667 50.168 6.45833H50.204C63.852 6.19167 69.544 23.9083 69.984 30.95L76.312 32.9208C74.84 11.3333 61.952 0 49.628 0C37.1 0.679167 26.704 9.45833 23.14 21.3792L23.084 21.5958C21.332 26.8542 20.316 32.9125 20.316 39.2167C20.316 50 23.28 60.0625 28.4 68.5667L28.272 68.3375C27.7 69.2375 27.36 70.3417 27.36 71.5292C27.36 71.75 27.372 71.9667 27.396 72.1792L27.392 72.1542L27.376 72.15Z" fill="#E5E3E3"/>
</g>
<defs>
<clipPath id="clip0_15_893">
<rect width="100" height="100" fill="white"/>
</clipPath>
</defs>
</svg>
