<svg width="120" height="100" viewBox="0 0 120 100" fill="none" xmlns="http://www.w3.org/2000/svg">
<path d="M92.5 39.625C88.7503 38.5488 85.4404 36.6137 82.95 34.0416C80.2052 31.1759 76.7103 28.8714 72.7325 27.3042C68.7547 25.7371 64.3995 24.9489 60 25C54.0818 24.6507 48.2229 26.1718 43.59 29.2604C38.9571 32.349 35.8902 36.7784 35 41.6666C36.7534 39.2218 39.3923 37.3036 42.537 36.188C45.6817 35.0723 49.17 34.8169 52.5 35.4583C56.2435 36.5658 59.5479 38.5122 62.05 41.0833C64.8098 43.9261 68.3114 46.2069 72.2883 47.752C76.2653 49.2972 80.6128 50.066 85 50C90.9182 50.3492 96.7771 48.8281 101.41 45.7395C106.043 42.6509 109.11 38.2215 110 33.3333C108.278 35.8074 105.648 37.7546 102.497 38.8875C99.3457 40.0204 95.841 40.2789 92.5 39.625ZM27.5 60.375C31.2497 61.4512 34.5596 63.3863 37.05 65.9583C39.7948 68.824 43.2897 71.1286 47.2675 72.6957C51.2453 74.2628 55.6005 75.051 60 75C65.9182 75.3492 71.7771 73.8281 76.41 70.7395C81.0429 67.6509 84.1098 63.2215 85 58.3333C83.2466 60.7781 80.6077 62.6964 77.463 63.812C74.3183 64.9276 70.83 65.1831 67.5 64.5416C63.7565 63.4341 60.4521 61.4878 57.95 58.9166C55.1828 56.0809 51.6798 53.8051 47.7045 52.2606C43.7293 50.7162 39.3855 49.9432 35 50C29.0818 49.6507 23.2229 51.1718 18.59 54.2604C13.9571 57.349 10.8902 61.7784 10 66.6666C11.7215 64.1926 14.352 62.2454 17.5032 61.1125C20.6543 59.9796 24.159 59.721 27.5 60.375Z" fill="#E5E3E3"/>
</svg>
