<svg width="65" height="65" viewBox="0 0 65 65" fill="none" xmlns="http://www.w3.org/2000/svg">
<g clip-path="url(#clip0_12_3)">
<path d="M32.5 63.7736C50.4493 63.7736 65 49.4974 65 31.8868C65 14.2762 50.4493 0 32.5 0C14.5507 0 0 14.2762 0 31.8868C0 49.4974 14.5507 63.7736 32.5 63.7736Z" fill="#E5E3E3"/>
<path d="M63.75 31.8868C63.75 48.8199 49.7587 62.5472 32.5 62.5472C15.2411 62.5472 1.25 48.8199 1.25 31.8868C1.25 14.9535 15.2411 1.22641 32.5 1.22641C49.7587 1.22641 63.75 14.9535 63.75 31.8868Z" fill="black"/>
<g filter="url(#filter0_d_12_3)">
<path d="M32.2917 61.3208C48.7451 61.3208 62.0833 48.2342 62.0833 32.0912C62.0833 15.9482 48.7451 2.86163 32.2917 2.86163C15.8382 2.86163 2.5 15.9482 2.5 32.0912C2.5 48.2342 15.8382 61.3208 32.2917 61.3208Z" fill="#E5E3E3"/>
<path d="M32.2917 61.3208C48.7451 61.3208 62.0833 48.2342 62.0833 32.0912C62.0833 15.9482 48.7451 2.86163 32.2917 2.86163C15.8382 2.86163 2.5 15.9482 2.5 32.0912C2.5 48.2342 15.8382 61.3208 32.2917 61.3208Z" stroke="black"/>
</g>
<g filter="url(#filter1_d_12_3)">
<path d="M23.9453 33.126C23.3203 33.126 22.7691 33.1984 22.2917 33.3432C21.8229 33.4879 21.428 33.6924 21.1067 33.9564C20.7856 34.2204 20.5425 34.5398 20.3776 34.9145C20.2213 35.2807 20.1432 35.6853 20.1432 36.1281C20.1432 36.4432 20.1866 36.7541 20.2734 37.0607C20.3602 37.3673 20.5469 37.6825 20.8333 38.0061C21.1198 38.3212 21.5321 38.6491 22.0703 38.9898C22.6172 39.3304 23.3507 39.6967 24.2708 40.0884C25.3299 40.5654 26.224 41.0125 26.9531 41.4299C27.691 41.8473 28.2899 42.2901 28.75 42.7585C29.2101 43.227 29.5399 43.7548 29.7396 44.3427C29.9479 44.9215 30.0521 45.6157 30.0521 46.4247C30.0521 47.0379 29.9262 47.6511 29.6745 48.2643C29.4228 48.8775 29.0408 49.427 28.5287 49.9126C28.0252 50.3979 27.3872 50.794 26.6146 51.1006C25.8507 51.3986 24.9522 51.5479 23.9192 51.5479C22.7734 51.5479 21.8099 51.4412 21.0287 51.2282C20.2474 51.0238 19.618 50.7556 19.1406 50.4236C18.6719 50.0913 18.3333 49.7168 18.125 49.2994C17.9167 48.8735 17.8125 48.4475 17.8125 48.0219C17.8125 47.7407 17.8559 47.4811 17.9427 47.2423C18.0295 46.9954 18.1554 46.7828 18.3203 46.6038C18.4939 46.4165 18.7022 46.2718 18.9453 46.1696C19.197 46.0588 19.4792 46.0032 19.7917 46.0032C20.0781 46.0032 20.3385 46.0543 20.5729 46.1565C20.8073 46.2501 21.0026 46.3822 21.1588 46.5527C21.3238 46.7146 21.4497 46.9104 21.5365 47.1401C21.632 47.3617 21.6797 47.6045 21.6797 47.8686C21.6797 48.4732 21.5017 48.929 21.1458 49.2357C20.7899 49.5423 20.3299 49.6951 19.7656 49.6951V49.7467C19.8264 49.8145 19.9436 49.9081 20.1172 50.0275C20.2995 50.1469 20.5469 50.2658 20.8594 50.3852C21.1805 50.5046 21.5712 50.6109 22.0312 50.7045C22.5 50.7899 23.0512 50.8324 23.6849 50.8324C24.2057 50.8324 24.7222 50.7642 25.2344 50.628C25.7552 50.4915 26.2153 50.2957 26.6146 50.0402C27.0226 49.7847 27.3524 49.474 27.6042 49.1077C27.8559 48.7414 27.9817 48.3285 27.9817 47.8686C27.9817 47.4766 27.908 47.1107 27.7604 46.7697C27.6128 46.4292 27.3351 46.0842 26.9271 45.7351C26.5191 45.3773 25.9505 44.9984 25.2213 44.5982C24.5009 44.1894 23.559 43.7295 22.3958 43.2185C21.5365 42.8607 20.829 42.4687 20.2734 42.0431C19.7266 41.6086 19.2925 41.1532 18.9713 40.6761C18.6588 40.1906 18.4418 39.6881 18.3203 39.1686C18.1988 38.6406 18.138 38.0998 18.138 37.5462C18.138 36.8478 18.2682 36.1877 18.5287 35.566C18.7891 34.9443 19.1667 34.4035 19.6615 33.9436C20.1562 33.4752 20.7639 33.1047 21.4844 32.8321C22.2135 32.5596 23.0425 32.4233 23.9713 32.4233C24.8655 32.4233 25.6424 32.5255 26.3021 32.7299C26.9705 32.9343 27.5217 33.2069 27.9558 33.5476C28.3898 33.8797 28.7153 34.2715 28.9323 34.7229C29.1493 35.1657 29.2578 35.6299 29.2578 36.1154C29.2578 36.3709 29.2144 36.6178 29.1276 36.8563C29.0408 37.0863 28.9149 37.2907 28.75 37.4695C28.5851 37.6399 28.3811 37.7804 28.138 37.8911C27.895 37.9933 27.6172 38.0444 27.3047 38.0444C27.0182 38.0444 26.7578 37.9976 26.5234 37.9039C26.2891 37.8102 26.0851 37.6825 25.9115 37.5206C25.7465 37.3588 25.6163 37.1672 25.5208 36.9457C25.434 36.7243 25.3906 36.4816 25.3906 36.2176C25.3906 35.9195 25.4427 35.6555 25.5469 35.4255C25.651 35.187 25.7899 34.9912 25.9635 34.8379C26.1458 34.676 26.3585 34.5568 26.6016 34.4802C26.8446 34.395 27.105 34.3524 27.3828 34.3524V34.3013C27.3308 34.2417 27.2266 34.148 27.0703 34.0203C26.9141 33.884 26.697 33.752 26.4192 33.6242C26.1415 33.4879 25.7986 33.373 25.3906 33.2793C24.9826 33.1771 24.5009 33.126 23.9453 33.126ZM31.9922 51.1006V50.5258L33.9974 50.3979V33.5731L31.9922 33.4454V32.8704H39.3359V33.4454L37.3307 33.5731V41.3404H37.3567L44.7396 33.5731L43.06 33.4454V32.8704H47.2787V33.4454L45.755 33.5731L39.7005 39.8457L47.9687 50.3979L49.375 50.5258V51.1006H41.94V50.5258L43.62 50.3979L37.3567 42.0047H37.3307V50.3979L39.3359 50.5258V51.1006H31.9922Z" fill="black"/>
<path d="M22.2916 33.3431L22.1686 32.9526L22.1665 32.9532L22.2916 33.3431ZM20.3776 34.9145L19.995 34.7524L19.9932 34.7566L20.3776 34.9145ZM20.8333 38.0061L20.5187 38.2741L20.5224 38.2782L20.8333 38.0061ZM22.0703 38.9898L21.8444 39.3333L21.8469 39.3349L22.0703 38.9898ZM24.2708 40.0884L24.4446 39.7169L24.4407 39.7151L24.4367 39.7134L24.2708 40.0884ZM26.9531 41.4299L26.7431 41.7831L26.745 41.7839L26.9531 41.4299ZM29.7396 44.3427L29.3443 44.4718L29.3454 44.4751L29.3466 44.4788L29.7396 44.3427ZM28.5286 49.9126L28.2391 49.6187L28.2366 49.6211L28.5286 49.9126ZM26.6146 51.1006L26.7686 51.4804L26.7708 51.4796L26.6146 51.1006ZM21.0286 51.2282L21.1401 50.8345L21.136 50.8333L21.0286 51.2282ZM19.1406 50.4236L18.8966 50.7548L18.8996 50.7568L19.1406 50.4236ZM18.125 49.2994L17.7493 49.476L17.7508 49.4793L18.125 49.2994ZM17.9427 47.2423L18.3351 47.3801L18.3366 47.3756L17.9427 47.2423ZM18.3203 46.6038L18.012 46.3286L18.0113 46.3294L18.3203 46.6038ZM18.9453 46.1696L19.1094 46.5453L19.1126 46.5437L19.1157 46.5424L18.9453 46.1696ZM20.5729 46.1565L20.4037 46.5302L20.4096 46.5326L20.4157 46.5351L20.5729 46.1565ZM21.1588 46.5527L20.8491 46.8261L20.8564 46.8343L20.8642 46.8417L21.1588 46.5527ZM21.5364 47.1401L21.1457 47.2824L21.149 47.291L21.1527 47.2995L21.5364 47.1401ZM19.7656 49.6951V49.2863H19.3489V49.6951H19.7656ZM19.7656 49.7467H19.3489V49.9L19.452 50.0156L19.7656 49.7467ZM20.1171 50.0275L19.8782 50.3623L19.8821 50.3652L19.886 50.3676L20.1171 50.0275ZM20.8594 50.3852L20.7083 50.7662L20.7119 50.7674L20.8594 50.3852ZM22.0312 50.7045L21.9466 51.1047L21.9509 51.1059L21.9554 51.1067L22.0312 50.7045ZM25.2344 50.628L25.127 50.2331L25.1253 50.2335L25.2344 50.628ZM26.6146 50.0402L26.3904 49.6956L26.3869 49.698L26.6146 50.0402ZM26.9271 45.735L26.6494 46.04L26.6531 46.0433L26.9271 45.735ZM25.2213 44.5982L25.0127 44.9518L25.0153 44.9534L25.0179 44.9546L25.2213 44.5982ZM22.3958 43.2184L22.5661 42.8452L22.5623 42.8436L22.5586 42.8419L22.3958 43.2184ZM20.2734 42.0431L20.0113 42.3608L20.0141 42.3628L20.0169 42.3653L20.2734 42.0431ZM18.9713 40.6761L18.6191 40.8944L18.6213 40.8981L18.6237 40.9013L18.9713 40.6761ZM18.3203 39.1686L17.9139 39.2587L17.9142 39.2601L18.3203 39.1686ZM19.6614 33.9436L19.948 34.2403L19.9508 34.2378L19.6614 33.9436ZM21.4844 32.8321L21.336 32.4501L21.3345 32.4507L21.4844 32.8321ZM26.3021 32.7299L26.1766 33.1198L26.1781 33.1202L26.3021 32.7299ZM27.9557 33.5475L27.6954 33.8668L27.6994 33.8699L27.9557 33.5475ZM28.9323 34.7229L28.5554 34.8973L28.5567 34.9L28.9323 34.7229ZM29.1276 36.8563L29.5184 36.9983L29.52 36.9938L29.1276 36.8563ZM28.75 37.4695L29.0521 37.7511L29.0556 37.7475L29.0589 37.7438L28.75 37.4695ZM28.138 37.8911L28.3021 38.2668L28.3079 38.2645L28.3135 38.2619L28.138 37.8911ZM25.9114 37.5206L25.6168 37.8097L25.6206 37.8134L25.6244 37.817L25.9114 37.5206ZM25.5208 36.9457L25.1319 37.0925L25.1344 37.0988L25.1371 37.105L25.5208 36.9457ZM25.5469 35.4255L25.9276 35.5915L25.9298 35.5865L25.5469 35.4255ZM25.9635 34.8379L26.2423 35.1417L26.2431 35.141L25.9635 34.8379ZM26.6016 34.4802L26.7291 34.8693L26.7354 34.8673L26.7417 34.8651L26.6016 34.4802ZM27.3828 34.3524V34.7612H27.7995V34.3524H27.3828ZM27.3828 34.3013H27.7995V34.15L27.6991 34.0353L27.3828 34.3013ZM27.0703 34.0202L26.7935 34.3258L26.7984 34.3301L26.8036 34.3343L27.0703 34.0202ZM26.4192 33.6242L26.2329 33.9898L26.2376 33.9922L26.2424 33.9944L26.4192 33.6242ZM25.3906 33.2792L25.2875 33.6754L25.2916 33.6764L25.2956 33.6773L25.3906 33.2792ZM23.9453 32.7171C23.2886 32.7171 22.6944 32.7931 22.1686 32.9526L22.4147 33.7337C22.8437 33.6036 23.352 33.5347 23.9453 33.5347V32.7171ZM22.1665 32.9532C21.6545 33.1114 21.2089 33.3391 20.8391 33.643L21.3744 34.2697C21.647 34.0456 21.9913 33.8645 22.4168 33.7331L22.1665 32.9532ZM20.8391 33.643C20.4685 33.9476 20.1859 34.3187 19.995 34.7524L20.7601 35.0766C20.8991 34.7608 21.1026 34.4931 21.3744 34.2697L20.8391 33.643ZM19.9932 34.7566C19.8133 35.1783 19.7266 35.6373 19.7266 36.1281H20.5599C20.5599 35.7332 20.6294 35.3831 20.7619 35.0723L19.9932 34.7566ZM19.7266 36.1281C19.7266 36.4806 19.7751 36.8282 19.8719 37.1701L20.6749 36.9513C20.5981 36.68 20.5599 36.4059 20.5599 36.1281H19.7266ZM19.8719 37.1701C19.9801 37.5519 20.205 37.9198 20.5187 38.2741L21.1479 37.738C20.8887 37.4452 20.7404 37.1827 20.6749 36.9513L19.8719 37.1701ZM20.5224 38.2782C20.8427 38.6306 21.2885 38.9814 21.8444 39.3333L22.2962 38.6462C21.7757 38.3168 21.3968 38.0118 21.1443 37.734L20.5224 38.2782ZM21.8469 39.3349C22.4192 39.6914 23.1744 40.0672 24.1049 40.4634L24.4367 39.7134C23.5269 39.326 22.8151 38.9695 22.2936 38.6446L21.8469 39.3349ZM24.097 40.4599C25.1479 40.9332 26.0292 41.3743 26.7431 41.7831L27.1631 41.0767C26.4187 40.6507 25.5117 40.1975 24.4446 39.7169L24.097 40.4599ZM26.745 41.7839C27.4581 42.1874 28.0234 42.6077 28.4499 43.0422L29.05 42.4748C28.5564 41.972 27.9238 41.5072 27.1612 41.0755L26.745 41.7839ZM28.4499 43.0422C28.8691 43.469 29.1652 43.9449 29.3443 44.4718L30.1349 44.2135C29.9146 43.5651 29.5509 42.9846 29.05 42.4748L28.4499 43.0422ZM29.3466 44.4788C29.5351 45.0025 29.6354 45.6484 29.6354 46.4247H30.4687C30.4687 45.5834 30.3606 44.8406 30.1325 44.2065L29.3466 44.4788ZM29.6354 46.4247C29.6354 46.9819 29.5214 47.5432 29.288 48.1118L30.0609 48.4172C30.3311 47.7594 30.4687 47.0943 30.4687 46.4247H29.6354ZM29.288 48.1118C29.0593 48.6686 28.7116 49.1706 28.2391 49.6187L28.8181 50.2066C29.3699 49.6837 29.7861 49.0868 30.0609 48.4172L29.288 48.1118ZM28.2366 49.6211C27.7785 50.0627 27.1892 50.4314 26.4583 50.7216L26.7708 51.4796C27.5851 51.1566 28.2719 50.7331 28.8207 50.2041L28.2366 49.6211ZM26.4606 50.7208C25.7565 50.9955 24.9125 51.139 23.9192 51.139V51.9567C24.9919 51.9567 25.9449 51.8017 26.7686 51.4804L26.4606 50.7208ZM23.9192 51.139C22.7969 51.139 21.8736 51.0344 21.1401 50.8345L20.9171 51.6222C21.7462 51.8483 22.7499 51.9567 23.9192 51.9567V51.139ZM21.136 50.8333C20.3857 50.637 19.8064 50.3856 19.3816 50.09L18.8996 50.7568C19.4297 51.126 20.1091 51.4109 20.9213 51.6235L21.136 50.8333ZM19.3846 50.0921C18.9591 49.7908 18.6715 49.4646 18.4992 49.1195L17.7508 49.4793C17.9951 49.9686 18.3846 50.3922 18.8966 50.7548L19.3846 50.0921ZM18.5006 49.1224C18.3163 48.7455 18.2291 48.38 18.2291 48.0219H17.3958C17.3958 48.5153 17.5169 49.0014 17.7493 49.476L18.5006 49.1224ZM18.2291 48.0219C18.2291 47.7823 18.2661 47.5698 18.3351 47.3801L17.5503 47.105C17.4458 47.3923 17.3958 47.6989 17.3958 48.0219H18.2291ZM18.3366 47.3756C18.4066 47.1765 18.5051 47.0126 18.6293 46.8781L18.0113 46.3294C17.8056 46.5527 17.6524 46.8147 17.5488 47.1094L18.3366 47.3756ZM18.6286 46.8789C18.7611 46.7358 18.9199 46.625 19.1094 46.5453L18.7811 45.7935C18.4846 45.9182 18.2267 46.0968 18.012 46.3286L18.6286 46.8789ZM19.1157 46.5424C19.3072 46.4582 19.5301 46.412 19.7916 46.412V45.5944C19.4282 45.5944 19.0869 45.659 18.7749 45.7964L19.1157 46.5424ZM19.7916 46.412C20.0266 46.412 20.2285 46.4537 20.4037 46.5302L20.7421 45.7829C20.4486 45.6549 20.1296 45.5944 19.7916 45.5944V46.412ZM20.4157 46.5351C20.5967 46.6074 20.7384 46.7055 20.8491 46.8261L21.4685 46.2792C21.2668 46.0592 21.0178 45.8928 20.7301 45.778L20.4157 46.5351ZM20.8642 46.8417C20.9837 46.959 21.0782 47.1037 21.1457 47.2824L21.9271 46.9983C21.821 46.717 21.6639 46.4701 21.4535 46.2636L20.8642 46.8417ZM21.1527 47.2995C21.2244 47.4659 21.263 47.654 21.263 47.8686H22.0963C22.0963 47.555 22.0394 47.2574 21.9202 46.9811L21.1527 47.2995ZM21.263 47.8686C21.263 48.3931 21.1114 48.721 20.8709 48.9282L21.4207 49.5427C21.8921 49.1367 22.0963 48.5529 22.0963 47.8686H21.263ZM20.8709 48.9282C20.6051 49.1572 20.249 49.2863 19.7656 49.2863V50.1039C20.4106 50.1039 20.9748 49.9269 21.4207 49.5427L20.8709 48.9282ZM19.3489 49.6951V49.7467H20.1823V49.6951H19.3489ZM19.452 50.0156C19.549 50.1244 19.7033 50.2421 19.8782 50.3623L20.3561 49.6927C20.1839 49.5741 20.1038 49.5046 20.0792 49.4772L19.452 50.0156ZM19.886 50.3676C20.1029 50.5095 20.3808 50.6411 20.7083 50.7662L21.0104 50.0042C20.7129 49.8905 20.496 49.7839 20.3483 49.6874L19.886 50.3676ZM20.7119 50.7674C21.0594 50.8966 21.4723 51.0082 21.9466 51.1047L22.1159 50.3043C21.67 50.2135 21.3017 50.1121 21.0068 50.003L20.7119 50.7674ZM21.9554 51.1067C22.4557 51.1975 23.0335 51.2412 23.6849 51.2412V50.4236C23.0689 50.4236 22.5442 50.3819 22.1071 50.3026L21.9554 51.1067ZM23.6849 51.2412C24.2432 51.2412 24.7964 51.1681 25.3434 51.0225L25.1253 50.2335C24.648 50.3603 24.1682 50.4236 23.6849 50.4236V51.2412ZM25.3417 51.0229C25.8997 50.877 26.4014 50.6648 26.8422 50.3828L26.3869 49.698C26.0291 49.9269 25.6106 50.1064 25.127 50.2331L25.3417 51.0229ZM26.8387 50.3848C27.2911 50.1015 27.6636 49.7524 27.9496 49.3362L27.2587 48.8792C27.0412 49.1956 26.7539 49.4678 26.3904 49.6956L26.8387 50.3848ZM27.9496 49.3362C28.2497 48.8996 28.3984 48.4062 28.3984 47.8686H27.5651C27.5651 48.2504 27.462 48.5832 27.2587 48.8792L27.9496 49.3362ZM28.3984 47.8686C28.3984 47.425 28.3146 47.004 28.1439 46.6099L27.3769 46.9296C27.5013 47.217 27.5651 47.5285 27.5651 47.8686H28.3984ZM28.1439 46.6099C27.9633 46.1933 27.6372 45.8005 27.201 45.4268L26.6531 46.0433C27.0329 46.3683 27.2623 46.6651 27.3769 46.9296L28.1439 46.6099ZM27.2047 45.4301C26.7654 45.045 26.1682 44.6493 25.4248 44.2413L25.0179 44.9546C25.7328 45.3471 26.2727 45.7097 26.6494 46.04L27.2047 45.4301ZM25.4299 44.2441C24.6924 43.8255 23.7363 43.3595 22.5661 42.8452L22.2255 43.5913C23.3817 44.0994 24.3094 44.5528 25.0127 44.9518L25.4299 44.2441ZM22.5586 42.8419C21.7226 42.494 21.0492 42.1188 20.5299 41.721L20.0169 42.3653C20.6087 42.8186 21.3503 43.2274 22.2331 43.5945L22.5586 42.8419ZM20.5356 41.7255C20.0152 41.3118 19.6124 40.8862 19.319 40.4507L18.6237 40.9013C18.9727 41.4197 19.4379 41.9054 20.0113 42.3608L20.5356 41.7255ZM19.3236 40.4578C19.0343 40.0083 18.8366 39.5484 18.7264 39.0772L17.9142 39.2601C18.047 39.8279 18.2834 40.373 18.6191 40.8944L19.3236 40.4578ZM18.7267 39.0786C18.6121 38.5808 18.5546 38.0702 18.5546 37.5462H17.7213C17.7213 38.1294 17.7854 38.7004 17.9139 39.2587L18.7267 39.0786ZM18.5546 37.5462C18.5546 36.899 18.6751 36.2919 18.914 35.7214L18.1432 35.4106C17.8614 36.0836 17.7213 36.7966 17.7213 37.5462H18.5546ZM18.914 35.7214C19.1521 35.1528 19.4962 34.6603 19.948 34.2403L19.3749 33.6468C18.8371 34.1466 18.4259 34.7357 18.1432 35.4106L18.914 35.7214ZM19.9508 34.2378C20.4008 33.8117 20.9593 33.4689 21.6342 33.2136L21.3345 32.4507C20.5684 32.7405 19.9116 33.1386 19.3721 33.6494L19.9508 34.2378ZM21.6327 33.2142C22.3064 32.9623 23.0838 32.8321 23.9713 32.8321V32.0145C23.0012 32.0145 22.1206 32.1569 21.336 32.4501L21.6327 33.2142ZM23.9713 32.8321C24.8346 32.8321 25.5673 32.931 26.1766 33.1198L26.4275 32.3401C25.7174 32.1201 24.8962 32.0145 23.9713 32.0145V32.8321ZM26.1781 33.1202C26.8093 33.3133 27.3109 33.565 27.6954 33.8668L28.216 33.2283C27.7324 32.8488 27.1316 32.5554 26.4261 32.3397L26.1781 33.1202ZM27.6994 33.8699C28.0864 34.166 28.3684 34.5084 28.5554 34.8973L29.3091 34.5485C29.062 34.0345 28.6931 33.5934 28.212 33.2252L27.6994 33.8699ZM28.5567 34.9C28.747 35.2883 28.8411 35.692 28.8411 36.1154H29.6745C29.6745 35.5678 29.5516 35.0432 29.3078 34.5457L28.5567 34.9ZM28.8411 36.1154C28.8411 36.3244 28.8058 36.5249 28.7352 36.7188L29.52 36.9938C29.623 36.7108 29.6745 36.4173 29.6745 36.1154H28.8411ZM28.7369 36.7143C28.6681 36.8963 28.5697 37.0556 28.441 37.1952L29.0589 37.7438C29.2601 37.5257 29.4134 37.2762 29.5184 36.9983L28.7369 36.7143ZM28.4479 37.188C28.3231 37.3168 28.1637 37.4287 27.9625 37.5203L28.3135 38.2619C28.5984 38.1321 28.847 37.9629 29.0521 37.7511L28.4479 37.188ZM27.9739 37.5154C27.7912 37.5921 27.5709 37.6356 27.3046 37.6356V38.4532C27.6635 38.4532 27.9987 38.3945 28.3021 38.2668L27.9739 37.5154ZM27.3046 37.6356C27.065 37.6356 26.8589 37.5966 26.6806 37.5253L26.3662 38.2824C26.6566 38.3985 26.9714 38.4532 27.3046 38.4532V37.6356ZM26.6806 37.5253C26.4916 37.4497 26.3323 37.349 26.1984 37.2242L25.6244 37.817C25.8379 38.0159 26.0865 38.1706 26.3662 38.2824L26.6806 37.5253ZM26.2061 37.2315C26.081 37.1088 25.9802 36.9619 25.9046 36.7865L25.1371 37.105C25.2524 37.3724 25.412 37.6088 25.6168 37.8097L26.2061 37.2315ZM25.9097 36.799C25.8432 36.6294 25.8073 36.4371 25.8073 36.2176H24.9739C24.9739 36.5261 25.0248 36.8192 25.1319 37.0925L25.9097 36.799ZM25.8073 36.2176C25.8073 35.9662 25.8511 35.7604 25.9276 35.5915L25.1661 35.2595C25.0343 35.5504 24.9739 35.8727 24.9739 36.2176H25.8073ZM25.9298 35.5865C26.0134 35.3953 26.1191 35.2504 26.2423 35.1417L25.6848 34.534C25.4607 34.7319 25.2887 34.9787 25.1639 35.2644L25.9298 35.5865ZM26.2431 35.141C26.3798 35.0196 26.5401 34.9289 26.7291 34.8693L26.474 34.0909C26.1769 34.1847 25.9119 34.3324 25.684 34.5347L26.2431 35.141ZM26.7417 34.8651C26.9364 34.7969 27.1491 34.7612 27.3828 34.7612V33.9436C27.0609 33.9436 26.7528 33.9931 26.4614 34.0951L26.7417 34.8651ZM27.7995 34.3524V34.3013H26.9661V34.3524H27.7995ZM27.6991 34.0353C27.6216 33.9464 27.4921 33.833 27.337 33.7062L26.8036 34.3343C26.9609 34.463 27.0399 34.5369 27.0664 34.5673L27.6991 34.0353ZM27.3471 33.7147C27.1504 33.5432 26.8949 33.3915 26.5961 33.254L26.2424 33.9944C26.4991 34.1124 26.6776 34.2248 26.7935 34.3258L27.3471 33.7147ZM26.6056 33.2586C26.2906 33.1041 25.915 32.9798 25.4856 32.8812L25.2956 33.6773C25.6822 33.7661 25.9923 33.8718 26.2329 33.9898L26.6056 33.2586ZM25.4937 32.8832C25.0433 32.7703 24.5253 32.7171 23.9453 32.7171V33.5347C24.4764 33.5347 24.922 33.5838 25.2875 33.6754L25.4937 32.8832ZM31.9921 51.1006H31.5755V51.5094H31.9921V51.1006ZM31.9921 50.5258L31.9651 50.1178L31.5755 50.1428V50.5258H31.9921ZM33.9974 50.3979L34.0244 50.8059L34.4141 50.7809V50.3979H33.9974ZM33.9974 33.5731H34.4141V33.19L34.0244 33.1651L33.9974 33.5731ZM31.9921 33.4453H31.5755V33.8285L31.9651 33.8533L31.9921 33.4453ZM31.9921 32.8704V32.4616H31.5755V32.8704H31.9921ZM39.3359 32.8704H39.7526V32.4616H39.3359V32.8704ZM39.3359 33.4453L39.3629 33.8533L39.7526 33.8285V33.4453H39.3359ZM37.3307 33.5731L37.3037 33.1651L36.9141 33.19V33.5731H37.3307ZM37.3307 41.3404H36.9141V41.7492H37.3307V41.3404ZM37.3567 41.3404V41.7492H37.5379L37.6615 41.6192L37.3567 41.3404ZM44.7396 33.5731L45.0441 33.8519L45.6341 33.2311L44.7716 33.1655L44.7396 33.5731ZM43.06 33.4453H42.6433V33.8237L43.0275 33.8529L43.06 33.4453ZM43.06 32.8704V32.4616H42.6433V32.8704H43.06ZM47.2787 32.8704H47.6954V32.4616H47.2787V32.8704ZM47.2787 33.4453L47.3141 33.8527L47.6954 33.8207V33.4453H47.2787ZM45.755 33.5731L45.7196 33.1658L45.5616 33.179L45.4525 33.292L45.755 33.5731ZM39.7005 39.8457L39.398 39.5646L39.1533 39.8181L39.3701 40.0948L39.7005 39.8457ZM47.9687 50.3979L47.6383 50.6472L47.7491 50.7887L47.9304 50.805L47.9687 50.3979ZM49.375 50.5258H49.7916V50.153L49.4133 50.1187L49.375 50.5258ZM49.375 51.1006V51.5094H49.7916V51.1006H49.375ZM41.94 51.1006H41.5234V51.5094H41.94V51.1006ZM41.94 50.5258L41.9079 50.1183L41.5234 50.1473V50.5258H41.94ZM43.62 50.3979L43.6521 50.8055L44.3979 50.7486L43.9558 50.1567L43.62 50.3979ZM37.3567 42.0047L37.6929 41.7631L37.5681 41.5959H37.3567V42.0047ZM37.3307 42.0047V41.5959H36.9141V42.0047H37.3307ZM37.3307 50.3979H36.9141V50.7809L37.3037 50.8059L37.3307 50.3979ZM39.3359 50.5258H39.7526V50.1428L39.3629 50.1178L39.3359 50.5258ZM39.3359 51.1006V51.5094H39.7526V51.1006H39.3359ZM32.4088 51.1006V50.5258H31.5755V51.1006H32.4088ZM32.0192 50.9338L34.0244 50.8059L33.9704 49.9899L31.9651 50.1178L32.0192 50.9338ZM34.4141 50.3979V33.5731H33.5807V50.3979H34.4141ZM34.0244 33.1651L32.0192 33.0374L31.9651 33.8533L33.9704 33.981L34.0244 33.1651ZM32.4088 33.4453V32.8704H31.5755V33.4453H32.4088ZM31.9921 33.2792H39.3359V32.4616H31.9921V33.2792ZM38.9192 32.8704V33.4453H39.7526V32.8704H38.9192ZM39.3089 33.0374L37.3037 33.1651L37.3577 33.981L39.3629 33.8533L39.3089 33.0374ZM36.9141 33.5731V41.3404H37.7474V33.5731H36.9141ZM37.3307 41.7492H37.3567V40.9316H37.3307V41.7492ZM37.6615 41.6192L45.0441 33.8519L44.435 33.2943L37.052 41.0616L37.6615 41.6192ZM44.7716 33.1655L43.0921 33.0378L43.0275 33.8529L44.7075 33.9807L44.7716 33.1655ZM43.4766 33.4453V32.8704H42.6433V33.4453H43.4766ZM43.06 33.2792H47.2787V32.4616H43.06V33.2792ZM46.8621 32.8704V33.4453H47.6954V32.8704H46.8621ZM47.2433 33.038L45.7196 33.1658L45.7908 33.9804L47.3141 33.8527L47.2433 33.038ZM45.4525 33.292L39.398 39.5646L40.003 40.1268L46.0579 33.8542L45.4525 33.292ZM39.3701 40.0948L47.6383 50.6472L48.2991 50.1489L40.0309 39.5966L39.3701 40.0948ZM47.9304 50.805L49.3366 50.9326L49.4133 50.1187L48.0071 49.9911L47.9304 50.805ZM48.9583 50.5258V51.1006H49.7916V50.5258H48.9583ZM49.375 50.6918H41.94V51.5094H49.375V50.6918ZM42.3566 51.1006V50.5258H41.5234V51.1006H42.3566ZM41.9725 50.9334L43.6521 50.8055L43.5875 49.9903L41.9079 50.1183L41.9725 50.9334ZM43.9558 50.1567L37.6929 41.7631L37.0206 42.2463L43.2837 50.6395L43.9558 50.1567ZM37.3567 41.5959H37.3307V42.4135H37.3567V41.5959ZM36.9141 42.0047V50.3979H37.7474V42.0047H36.9141ZM37.3037 50.8059L39.3089 50.9338L39.3629 50.1178L37.3577 49.9899L37.3037 50.8059ZM38.9192 50.5258V51.1006H39.7526V50.5258H38.9192ZM39.3359 50.6918H31.9921V51.5094H39.3359V50.6918Z" fill="black"/>
</g>
<path d="M15.625 16.7227V15.9817L27.5 10.2968V11.8553L17.7734 16.2883V16.3138L27.5 20.7341V22.3054L15.625 16.7227ZM27.9427 30.852L38.8933 5.85101H40.4948L29.5313 30.852H27.9427ZM40.9115 22.3054V20.7468L50.6379 16.3138V16.2883L40.9115 11.8681V10.2968L52.7867 15.8795V16.6204L40.9115 22.3054Z" fill="black"/>
</g>
<defs>
<filter id="filter0_d_12_3" x="-2" y="2.36163" width="68.5833" height="67.4591" filterUnits="userSpaceOnUse" color-interpolation-filters="sRGB">
<feFlood flood-opacity="0" result="BackgroundImageFix"/>
<feColorMatrix in="SourceAlpha" type="matrix" values="0 0 0 0 0 0 0 0 0 0 0 0 0 0 0 0 0 0 127 0" result="hardAlpha"/>
<feOffset dy="4"/>
<feGaussianBlur stdDeviation="2"/>
<feComposite in2="hardAlpha" operator="out"/>
<feColorMatrix type="matrix" values="0 0 0 0 0 0 0 0 0 0 0 0 0 0 0 0 0 0 0.25 0"/>
<feBlend mode="normal" in2="BackgroundImageFix" result="effect1_dropShadow_12_3"/>
<feBlend mode="normal" in="SourceGraphic" in2="effect1_dropShadow_12_3" result="shape"/>
</filter>
<filter id="filter1_d_12_3" x="13.3958" y="32.0145" width="40.3958" height="27.9421" filterUnits="userSpaceOnUse" color-interpolation-filters="sRGB">
<feFlood flood-opacity="0" result="BackgroundImageFix"/>
<feColorMatrix in="SourceAlpha" type="matrix" values="0 0 0 0 0 0 0 0 0 0 0 0 0 0 0 0 0 0 127 0" result="hardAlpha"/>
<feOffset dy="4"/>
<feGaussianBlur stdDeviation="2"/>
<feComposite in2="hardAlpha" operator="out"/>
<feColorMatrix type="matrix" values="0 0 0 0 0 0 0 0 0 0 0 0 0 0 0 0 0 0 0.25 0"/>
<feBlend mode="normal" in2="BackgroundImageFix" result="effect1_dropShadow_12_3"/>
<feBlend mode="normal" in="SourceGraphic" in2="effect1_dropShadow_12_3" result="shape"/>
</filter>
<clipPath id="clip0_12_3">
<rect width="65" height="65" fill="white"/>
</clipPath>
</defs>
</svg>
