   <svg width="312.7232164373585" height="304.91562500000003" viewBox="0 0 270 263.2590560045322" class="css-1j8o68f"><defs id="SvgjsDefs5758"></defs><g id="SvgjsG5759" featurekey="rootContainer" transform="matrix(2.5809711372993354,0,0,2.5809711372993354,0.030434266996216174,0)" fill="#15eda3"><path xmlns="http://www.w3.org/2000/svg" d="M50.8 102h5.8l1.8-.2 1.7-.3h1.7l1.9-.3 1.8-.4.9-.2.9-.3 1.7-.6 2-.8a54 54 0 0 0 15.3-9.4l1.4-1.2.7-.5.6-.4 1-.5.8-.5 1.5-1.2 1.5-1.5.8-1 .9-1.1a50.9 50.9 0 0 0 3.9-5.8 34.8 34.8 0 0 0 1.6-3.1l.2-.4.2-.4.3-.8.3-.9.2-.4v-.4l.4-1.2.2-.6v-.3h.1v-.2l.7-2.5c.2-.9.4-1.7.5-2.6a25.4 25.4 0 0 0 .2-2.6v-3.1c0-.3 0-1 .1-1.5v-2.1a21.3 21.3 0 0 0 .2-2.6v-2.6c0-.9-.1-1.1-.1-1.6l-.2-1.5c-.1-1-.4-2-.5-3s-.2-1-.3-1.4l-.3-1.4-.3-1.4v-1.7l-.4-1.4-.2-.7-.2-.7-.4-1.4-.5-1.4-.4-1-.5-1-1-2.1a40.7 40.7 0 0 1-1.8-4.1 3.6 3.6 0 0 0-.8-1.2l-.7-.6-.2-.3-.3-.5a25.7 25.7 0 0 0-1.6-2.3l-.8-1.1-.9-1.1-.4-.5-.2-.3-.2-.2h-.1l-.9-1-.5-.5-.5-.5-.9-1.1-1.1-1a47.9 47.9 0 0 0-3.8-3l-.1-.5-1.3-.9A29 29 0 0 0 72 .4h-3.1a.8.8 0 0 0-.6 1.2A3.9 3.9 0 0 0 69.9 3l-.6.3-.4-.2a.9.9 0 0 0 0-.3c-.1-.5-.2-.9-1.3-1.3L65.3.7l-.6-.2h-.6L62.8 0l-1.3 1.2A48.5 48.5 0 0 0 39 2.4 31.1 31.1 0 0 0 31.4 4h-.5l-.5.2-1 .4-1 .5-.9.6-1.8 1.5-.8.6-.7.7c-1 .9-1.9 1.9-2.8 2.8L20 12.8l-1.4 1.5-.5.5-.5.5-1.1 1a55.1 55.1 0 0 0-7 7l.2-.5.6-1.1.6-1.1.6-1.1.6-1.2.6-1.2 1.2-2.4.4-.8.3-.6a1 1 0 0 0 0-.8 3.7 3.7 0 0 1-.2-1.2 17.1 17.1 0 0 0-2.1 1.1l-1.5 1.1-.8.6-.7.7-.8 1-.5 1-.5 1-.2.5-.3.5-.3.6-.4.8-.4.8-.7 1.7-.5 1.3-.5 1.3v.7l-.2.6-.3 1.3v.2h-.4v.3l-.2.7-.3 1.4-.2.7-.2.7-.4 1.7-.4 1.9-.2.9v2.8l-.6 1.9a38.3 38.3 0 0 0-.1 4.1 52.7 52.7 0 0 0-.7 8.7 5.2 5.2 0 0 0 0 .7c.5 3 .8 6 1.5 9l.4 1.8.5 1.8a18.3 18.3 0 0 0 .6 1.7l.4.8.4.8.9 1.7.5.8.5.8.5.8.5.8L7.8 77c1.4 2 2.9 4 4.5 5.9a35.6 35.6 0 0 0 2.6 2.7l.7.6.3.3.4.3 1.5 1.1 1 1a34 34 0 0 0 8.2 6.2l1.4.7 1.5.7.7.3.8.3 1.5.6.9.4.8.4.8.4 1 .4 1.9.7 1.9.6 1.6.4 1.6.4 1.6.3h5.7z"></path></g><g id="SvgjsG5760" featurekey="symbolFeature-0" transform="matrix(1.5999999999999999,0,0,1.5999999999999999,95,52)" fill="#127780"><defs xmlns="http://www.w3.org/2000/svg"></defs><g xmlns="http://www.w3.org/2000/svg"><path class="fil0" d="M13.0424 15.2804l23.9152 0c0.213024,0 0.385728,0.172705 0.385728,0.385728l0 15.4745c0,0.213024 -0.172705,0.385732 -0.385728,0.385732l-23.9152 0c-0.213024,0 -0.385728,-0.172709 -0.385728,-0.385732l0 -15.4745c0,-0.213024 0.172705,-0.385728 0.385728,-0.385728zm1.22146 1.60719l0 13.0316 21.4723 0 0 -13.0316 -21.4723 0z" style="fill: #127780; fill-rule: nonzero;"></path><polygon class="fil0" points="30.5708,34.7908 19.4292,34.7908 19.4292,33.6759 30.5708,33.6759 " style="fill: #127780; fill-rule: nonzero;"></polygon><polygon class="fil0" points="17.3954,23.9155 17.3954,22.9824 22.7914,20.7045 22.7914,21.6983 18.5126,23.4546 22.7914,25.2261 22.7914,26.2218 " style="fill: #127780; fill-rule: nonzero;"></polygon><polygon class="fil0" points="23.4192,27.6158 25.7805,19.1929 26.5809,19.1929 24.2252,27.6158 " style="fill: #127780; fill-rule: nonzero;"></polygon><polygon class="fil0" points="32.5989,23.9155 27.203,26.2218 27.203,25.2261 31.4761,23.4546 27.203,21.6983 27.203,20.7045 32.5989,22.9824 " style="fill: #127780; fill-rule: nonzero;"></polygon><polygon class="fil1" points="22.9616,31.1407 27.0384,31.1407 28.1635,33.801 21.8365,33.801 " style="fill: #127780;"></polygon></g><path xmlns="http://www.w3.org/2000/svg" class="fil0" d="M25.3857 0.226008l10.4391 6.027 -0.000759843 0.00131102 10.4369 6.02567 0.388744 0.224449 0 0.441539 0 12.054 0 12.054 0 0.441539 -0.388744 0.224449 -10.4369 6.02567 0.000759843 0.00131102 -10.4391 6.027 -0.385728 0.222685 -0.385728 -0.222685 -10.4391 -6.027 0.000759843 -0.00131102 -10.4369 -6.02567 -0.388744 -0.224449 0 -0.441539 0 -12.054 0 -12.054 0 -0.441539 0.388744 -0.224449 10.4369 -6.02567 -0.000759843 -0.00131102 10.4391 -6.027 0.385728 -0.222685 0.385728 0.222685zm-0.385748 2.4497l-7.65976 4.42235 0.000755906 0.00133071 -11.6762 6.74124 0 22.3187 11.6762 6.74124 -0.000755906 0.00131102 7.6598 4.42237 7.65976 -4.42235 -0.000755906 -0.00133071 11.6762 -6.74124 0 -22.3187 -11.6762 -6.74124 0.000755906 -0.00131102 -7.6598 -4.42237z" style="fill: #127780; fill-rule: nonzero;"></path><rect xmlns="http://www.w3.org/2000/svg" class="fil2" width="50" height="50" style="fill: none;"></rect></g><g id="SvgjsG5761" featurekey="nameFeature-0" transform="matrix(1.9095701849939823,0,0,1.9095701849939823,33.6400923509383,133.6211773303226)" fill="#127780"><path d="M3.88 21.2 c0.4 0.56 0.84 1.08 1.32 1.6 c0.36 0.44 0.8 0.72 1.28 0.96 c0.36 0.12 0.68 0.28 1 0.44 c0.56 0.36 1.04 0.72 1.48 1.16 c0.4 0.4 0.8 0.84 1.24 1.16 c0.12 0.12 0.2 0.24 0.36 0.36 l0.32 0 c0.12 0.04 0.2 0.08 0.28 0.16 c0.28 0.28 0.48 0.6 0.56 1 c0.04 0.32 0.12 0.64 0.24 0.96 c0.12 0.4 0.16 0.84 0.2 1.28 l0 1.16 c0 0.2 0 0.44 0.12 0.64 c0.04 0.08 0.04 0.2 0.04 0.32 c0.04 0.24 0.04 0.48 0.08 0.68 c0.08 0.56 0.08 1.08 -0.04 1.64 c-0.04 0.08 -0.04 0.2 -0.04 0.32 c-0.04 0.08 -0.04 0.2 -0.08 0.32 c-0.16 0.4 -0.24 0.84 -0.4 1.28 c0 0.04 -0.04 0.12 -0.08 0.16 c-0.2 0.28 -0.36 0.6 -0.56 0.88 c-0.08 0.12 -0.16 0.24 -0.28 0.36 c-0.32 0.08 -0.64 0.2 -0.96 0.4 c-0.08 0.08 -0.2 0.12 -0.36 0.12 c-0.12 0 -0.28 0.04 -0.44 0.04 c-0.24 0.04 -0.4 0.12 -0.56 0.32 s-0.36 0.28 -0.6 0.32 l-0.2 0 c-0.24 0.04 -0.52 0.12 -0.76 0.12 c-0.28 0 -0.52 -0.08 -0.76 -0.12 l-0.4 0 c-0.24 0 -0.48 -0.04 -0.68 -0.16 c-0.36 -0.16 -0.76 -0.28 -1.12 -0.36 c-0.28 -0.08 -0.52 -0.2 -0.76 -0.36 s-0.48 -0.32 -0.72 -0.44 c-0.6 -0.32 -1 -0.88 -1.36 -1.48 c-0.04 -0.2 -0.12 -0.4 -0.12 -0.6 c-0.04 -0.4 -0.16 -0.76 -0.2 -1.16 c-0.12 -0.6 -0.24 -1.2 -0.2 -1.8 c0.04 -0.2 0.04 -0.4 0.08 -0.6 c0.04 -0.28 0.08 -0.56 0.08 -0.84 c0 -0.16 0 -0.32 0.04 -0.48 c0.12 -0.28 0.08 -0.52 0.04 -0.76 c-0.08 -0.24 -0.12 -0.44 -0.2 -0.68 c0.08 -0.2 0.16 -0.4 0.24 -0.64 c0.04 -0.12 0.16 -0.2 0.28 -0.2 l0.48 0 c0.44 -0.04 0.92 -0.04 1.36 -0.04 c0.2 0 0.32 0.08 0.44 0.2 c0.08 0.08 0.12 0.16 0.12 0.24 c-0.04 0.24 0 0.44 0.2 0.6 c0.08 0.08 0.12 0.2 0.08 0.36 c-0.04 0.08 -0.08 0.2 -0.12 0.32 c-0.08 0.2 -0.12 0.44 -0.08 0.68 c0.08 0.24 0.04 0.52 0.08 0.76 c0 0.28 -0.04 0.52 0.08 0.8 c0.04 0.12 0.04 0.24 0 0.36 c-0.12 0.36 -0.08 0.68 -0.04 1.04 c0 0.16 0.08 0.32 0.24 0.44 c0.36 0.32 0.72 0.6 1.2 0.76 c0.12 0.04 0.28 0.12 0.4 0.16 c0.2 0.08 0.4 0.12 0.64 0.12 c0.16 0 0.36 0 0.52 0.08 c0.56 0.12 1.08 0.04 1.6 -0.16 c0.2 -0.04 0.4 -0.16 0.6 -0.24 c0.16 -0.44 0.32 -0.84 0.28 -1.32 l0 -2.84 l0 -0.4 c0 -0.28 -0.08 -0.52 -0.36 -0.64 c-0.08 -0.08 -0.16 -0.16 -0.2 -0.28 c-0.08 -0.36 -0.32 -0.64 -0.6 -0.88 c-0.52 -0.48 -1 -0.96 -1.52 -1.44 c-0.12 -0.08 -0.2 -0.2 -0.36 -0.24 c-0.16 0 -0.36 -0.08 -0.48 -0.16 c-0.28 -0.16 -0.56 -0.24 -0.88 -0.32 c-0.8 -0.2 -1.52 -0.56 -2.12 -1.12 c-0.52 -0.48 -0.84 -1.04 -1.16 -1.56 c-0.16 -0.24 -0.28 -0.52 -0.4 -0.76 c-0.2 -0.36 -0.24 -0.8 -0.36 -1.16 c-0.04 -0.08 0 -0.16 0 -0.2 c0.08 -0.28 0.12 -0.52 -0.04 -0.76 c-0.04 -0.48 -0.16 -0.92 -0.12 -1.4 c0.04 -0.44 0.08 -0.88 0.04 -1.32 l0 -0.16 c0.12 -0.32 0.12 -0.6 0.12 -0.92 l0 -1.88 c-0.04 -0.4 0.08 -0.76 0.32 -1.08 c0.08 -0.12 0.12 -0.2 0.2 -0.28 c0.28 -0.36 0.6 -0.76 0.92 -1.12 c0.04 -0.08 0.12 -0.12 0.24 -0.2 c0.36 -0.16 0.64 -0.4 0.96 -0.64 c0.24 -0.2 0.52 -0.36 0.84 -0.48 c0.28 -0.08 0.52 -0.24 0.8 -0.24 c0.12 0 0.24 -0.04 0.4 -0.04 c0.32 0 0.64 -0.04 0.96 -0.08 c0.2 -0.04 0.44 0 0.64 0.04 c0.36 0.04 0.68 0.08 1.04 0.08 c0.24 0.04 0.52 0.04 0.76 0.12 c0.2 0.04 0.4 0.16 0.6 0.28 c0.32 0.2 0.56 0.52 0.76 0.84 c0.16 0.24 0.28 0.48 0.48 0.68 c0.12 0.16 0.24 0.32 0.28 0.52 c0.04 0.12 0.08 0.24 0.16 0.36 c0.12 0.36 0.24 0.72 0.28 1.12 c0.04 0.16 0.08 0.32 0.08 0.44 c0.04 0.32 0.16 0.6 0.4 0.8 c0.12 0.08 0.12 0.16 0.12 0.28 c0 0.48 0 0.96 -0.04 1.44 c-0.08 0.36 -0.08 0.72 -0.08 1.08 c0 0.52 -0.04 1 -0.16 1.48 c-0.04 0.2 -0.04 0.36 0 0.52 c0.04 0.12 0.04 0.2 0.04 0.32 c0 0.08 0 0.12 -0.04 0.2 c-0.16 0.16 -0.32 0.28 -0.52 0.36 c-0.44 0.12 -0.88 0.2 -1.36 0.28 c-0.04 0.04 -0.12 0 -0.16 -0.04 c-0.12 -0.12 -0.28 -0.28 -0.4 -0.44 c0 -0.04 -0.04 -0.12 -0.04 -0.16 c-0.04 -0.28 -0.08 -0.52 -0.08 -0.8 c0.04 -0.36 0 -0.72 0 -1.08 c0 -0.28 0.04 -0.56 -0.04 -0.84 c-0.04 -0.04 -0.04 -0.08 -0.04 -0.12 c0.08 -0.72 -0.12 -1.44 -0.28 -2.12 c0 -0.04 0 -0.08 -0.04 -0.12 c-0.2 -0.36 -0.36 -0.8 -0.68 -1.12 c-0.2 -0.24 -0.44 -0.48 -0.68 -0.68 c-0.28 -0.24 -0.6 -0.36 -0.88 -0.52 l-0.2 0 c-0.44 0 -0.84 0.16 -1.24 0.36 c-0.08 0.04 -0.12 0.12 -0.2 0.16 l-0.56 0.56 s-0.4 0.4 -0.44 0.68 c0 0.12 -0.04 0.2 -0.04 0.28 c-0.04 0.08 -0.08 0.2 -0.04 0.32 c0.04 0.32 -0.16 0.68 -0.12 1 l0 2.88 c0 0.16 0.04 0.32 0.04 0.52 z M30.726000000000003 38.68 c-0.56 0.44 -1.2 0.68 -1.84 0.8 c-0.28 0.04 -0.52 0.08 -0.84 -0.04 c-0.16 -0.16 -0.24 -0.4 -0.36 -0.68 c-0.2 -0.6 -0.44 -1.24 -0.64 -1.88 c-0.08 -0.2 -0.24 -0.4 -0.32 -0.6 c-0.08 -0.08 -0.16 -0.16 -0.2 -0.28 c-0.2 -0.52 -0.44 -1.04 -0.68 -1.6 c-0.16 -0.28 -0.28 -0.56 -0.44 -0.8 c-0.2 -0.28 -0.36 -0.56 -0.48 -0.88 c-0.08 -0.16 -0.12 -0.32 -0.2 -0.44 c-0.28 -0.4 -0.44 -0.88 -0.56 -1.36 c0 -0.08 -0.04 -0.2 -0.04 -0.28 c-0.24 -0.48 -0.32 -1 -0.44 -1.52 c-0.12 -0.68 -0.32 -1.32 -0.68 -1.92 c-0.24 -0.4 -0.48 -0.84 -0.72 -1.28 l-0.04 -0.04 c-0.04 0.04 -0.08 0.04 -0.12 0.08 c-0.08 0.24 -0.16 0.48 -0.2 0.76 c-0.2 0.72 -0.4 1.44 -0.64 2.12 c-0.08 0.24 -0.12 0.52 -0.16 0.8 c-0.04 0.16 -0.04 0.28 -0.08 0.44 c-0.24 0.8 -0.4 1.6 -0.72 2.4 c-0.24 0.52 -0.32 1.12 -0.4 1.68 c0 0.4 -0.08 0.76 -0.16 1.12 c-0.16 0.64 -0.32 1.32 -0.56 1.92 c-0.2 0.52 -0.32 1.08 -0.4 1.64 c0 0.24 -0.04 0.44 -0.12 0.68 c-0.04 0.16 -0.16 0.24 -0.32 0.24 c-0.6 0 -1.2 0 -1.8 -0.04 c-0.4 0 -0.8 -0.08 -1.2 -0.12 c-0.28 0 -0.44 -0.12 -0.48 -0.36 c-0.12 -0.36 -0.2 -0.68 -0.2 -1 c0 -0.28 0 -0.56 -0.08 -0.8 c-0.08 -0.4 -0.08 -0.8 -0.08 -1.2 c0 -0.16 0 -0.32 -0.04 -0.48 c-0.04 -0.28 -0.04 -0.56 -0.04 -0.88 l0 -2.96 c0 -0.56 0.04 -1.16 -0.04 -1.72 l0 -0.48 l0 -17.68 c0 -0.2 0 -0.44 0.04 -0.64 c0 -0.12 0.08 -0.24 0.2 -0.24 c0.68 -0.16 1.36 -0.2 2.08 -0.16 c0.24 0 0.48 0.08 0.68 0.16 c0.08 0.04 0.12 0.12 0.16 0.2 s0.04 0.2 0.04 0.28 c0 0.52 0.04 1.04 0.04 1.52 c0 2.04 -0.04 4.04 -0.04 6.08 c0 2.68 0 5.36 0.04 8.04 l0 2.04 l0 0.4 c0.04 -0.04 0.08 -0.04 0.12 -0.08 c0.08 -0.28 0.16 -0.6 0.24 -0.88 c0.12 -0.48 0.28 -0.96 0.44 -1.4 c0.28 -0.72 0.48 -1.4 0.68 -2.12 c0.24 -0.8 0.48 -1.64 0.88 -2.4 c0.04 -0.16 0.16 -0.32 0.24 -0.48 c0.24 -0.32 0.48 -0.64 0.68 -1 c0.08 -0.12 0.24 -0.24 0.36 -0.36 c0.04 -0.04 0.12 -0.08 0.2 -0.08 c0.36 0.04 0.76 -0.04 1.12 0 c0.12 0 0.24 0 0.36 -0.04 c0.2 -0.08 0.36 -0.04 0.56 -0.04 c0.24 0 0.4 0.08 0.6 0.2 c0.16 0.12 0.24 0.24 0.24 0.44 c0 0.16 0 0.32 -0.04 0.48 c0 0.28 0.04 0.52 0.16 0.76 l0.6 1.44 l0.24 0.48 c0.8 1.36 1.36 2.8 1.72 4.36 c0.12 0.56 0.32 1.16 0.56 1.72 c0.04 0.08 0.08 0.2 0.12 0.28 c0.04 0.04 0.08 0.04 0.12 0.04 c0.04 -0.04 0.04 -0.04 0.04 -0.08 c0.08 -0.44 0.04 -0.88 0 -1.32 c0 -0.16 -0.04 -0.36 -0.04 -0.52 c0 -0.64 0 -1.28 -0.08 -1.88 c-0.04 -0.24 -0.04 -0.52 -0.04 -0.76 c-0.04 -0.84 -0.12 -1.68 -0.2 -2.52 l0 -0.2 c-0.04 -0.88 -0.04 -1.76 -0.08 -2.64 c-0.08 -3.12 0 -6.24 -0.04 -9.4 l0 -0.52 c0.04 -0.08 0.08 -0.12 0.08 -0.16 c0.72 -0.2 1.4 -0.2 2.08 -0.2 c0.12 0 0.24 0 0.36 0.04 c0.56 0.12 0.56 0.12 0.6 0.68 c0 0.12 0.04 0.24 0.04 0.4 c-0.04 0.52 0.08 1.08 0.12 1.6 c0.08 0.2 0.04 0.4 0.04 0.6 c-0.04 0.16 -0.04 0.36 0 0.52 c0.08 0.44 0.04 0.84 0.04 1.28 c0.04 2.48 0.04 4.92 0.04 7.4 c0 0.16 0 0.32 0.04 0.48 c0.04 0.48 0.04 1 0.04 1.52 l0 11.36 c0 0.68 -0.08 1.32 -0.16 1.96 z M47.37200000000001 11.920000000000002 c0 0.04 0.04 0.04 0.04 0.08 c0.16 0.68 0.2 1.4 0.2 2.16 l-0.04 0.04 c-0.12 0.64 -0.08 0.76 -0.8 0.8 c-0.24 0.04 -0.52 0.04 -0.8 0.04 l-6.28 0 c-0.24 0 -0.48 0 -0.72 0.04 c-0.2 0 -0.28 0.08 -0.28 0.24 l0 0.72 s0.04 0.48 0.04 0.72 l0 1.32 c0 0.56 0 1.08 0.08 1.64 l0 0.6 l0 5.12 c0 0.24 -0.04 0.48 0.04 0.76 c0.12 -0.04 0.2 0 0.28 -0.04 c0.92 -0.32 1.84 -0.48 2.76 -0.52 c0.64 -0.08 1.32 -0.12 1.96 -0.24 c0.32 -0.08 0.64 -0.12 1 -0.12 c0.36 -0.04 0.64 -0.08 0.96 -0.28 c0.08 -0.04 0.24 -0.04 0.32 0.08 c0.16 0.2 0.36 0.36 0.6 0.52 c0.36 0.24 0.56 0.88 0.28 1.44 c-0.32 0.6 -0.48 0.84 -1.32 1 c-0.28 0.04 -0.52 0.08 -0.8 0.12 c-0.84 0.12 -1.68 0.24 -2.52 0.32 c-0.12 0.04 -0.28 0.04 -0.4 0.04 c-1.04 0.08 -2 0.36 -2.92 0.8 c-0.16 0.08 -0.24 0.2 -0.24 0.4 l0 1.08 l0 4 c0 0.2 0 0.4 0.04 0.64 c0 0.08 0.04 0.12 0.12 0.16 l0.64 0 l6.32 0 l0.48 0 c0.72 0.04 0.64 -0.04 0.76 0.64 c0.08 0.56 0.08 1.08 0.08 1.6 l0 0.16 c-0.2 0.6 -0.12 0.72 -0.84 0.72 c-1.08 0.04 -2.16 0.04 -3.28 0 l-2.32 0 c-0.96 0 -1.96 0 -2.96 -0.04 c-0.56 -0.04 -1.08 -0.12 -1.64 -0.2 c-0.12 0 -0.2 -0.12 -0.24 -0.24 c-0.32 -0.88 -0.32 -0.88 -0.32 -1.84 c-0.04 -1.08 -0.04 -2.2 -0.04 -3.32 l0 -8.04 c0.04 -2.4 0.08 -4.84 0.08 -7.24 c0 -0.8 0.08 -1.6 0.08 -2.4 c0 -0.16 0.04 -0.36 -0.12 -0.52 c-0.08 -0.32 -0.2 -0.6 -0.28 -0.88 c-0.08 -0.64 -0.12 -1.28 0.08 -1.88 c0.08 -0.16 0.16 -0.24 0.32 -0.24 l0.52 0 l10.44 0 c0.2 0 0.44 -0.04 0.64 0.04 z M57.33800000000001 26.4 c0.04 -2.96 0.04 -5.92 0.04 -8.88 c0 -0.52 0.04 -1.08 0.08 -1.6 c0 -0.28 -0.04 -0.56 -0.04 -0.8 c0 -0.04 -0.04 -0.08 -0.08 -0.08 c-0.16 -0.04 -0.32 -0.04 -0.44 -0.04 l-4.44 0 l-0.72 0 c-0.12 0 -0.24 -0.04 -0.32 -0.08 c-0.08 0 -0.16 -0.08 -0.2 -0.16 c0 -0.16 -0.04 -0.28 -0.08 -0.44 c-0.24 -0.68 -0.24 -1.36 -0.16 -2.08 c0.04 -0.16 0.12 -0.32 0.16 -0.48 c0.04 -0.08 0.12 -0.16 0.2 -0.16 c0.08 -0.04 0.16 -0.04 0.24 -0.04 l0.52 0 l12.6 0 l1 0 c0.12 0 0.2 0 0.32 0.04 c0.12 0 0.2 0.04 0.24 0.16 c0.2 0.96 0.28 1.92 0.04 2.84 c-0.08 0.2 -0.2 0.32 -0.36 0.36 c-0.24 0 -0.44 0.04 -0.64 0.04 l-3.88 0 l-0.6 0 c-0.08 0.04 -0.16 0.12 -0.16 0.2 l0 0.24 c0.08 0.4 0.04 0.8 0.04 1.16 l0 19.08 c0 0.4 -0.04 0.8 -0.04 1.2 l0 1.08 l0 0.68 c-0.04 0.12 -0.12 0.24 -0.24 0.28 c-0.6 0.08 -1.2 0.16 -1.84 0.16 c-0.28 -0.04 -0.56 -0.08 -0.8 -0.16 c-0.16 -0.04 -0.24 -0.16 -0.24 -0.32 c-0.04 -0.44 -0.08 -0.88 -0.08 -1.36 c-0.08 -1.48 -0.08 -2.96 -0.08 -4.44 l0 -2.68 l0 -2 l0 -1.72 l-0.04 0 z M76.46400000000001 10 l0.6 -0.24 c0.48 -0.2 1 -0.16 1.48 0 c0.12 0.04 0.24 0.12 0.24 0.24 c0.04 0.28 0.08 0.56 0.12 0.8 c0.08 0.6 0 1.2 0.12 1.76 c0.04 0.16 0 0.36 0 0.52 c0 1.2 0 2.4 0.12 3.6 c0.08 1.28 0.08 2.56 0.08 3.84 c0 0.28 0.04 0.56 0.08 0.8 l0 0.68 l0 1.68 c0 0.08 0.04 0.16 0.04 0.24 s0.12 0.16 0.2 0.12 c0.12 0 0.24 -0.04 0.36 -0.08 c0.28 -0.12 0.56 -0.2 0.84 -0.32 c0.12 -0.04 0.28 -0.08 0.4 -0.08 c0.36 0 0.64 -0.08 0.96 -0.16 c0.44 -0.12 0.88 -0.12 1.32 -0.12 c0.08 0 0.2 0.04 0.28 0.08 s0.2 0.12 0.2 0.2 c0.2 0.68 0.36 1.4 0.32 2.12 c0 0.16 0 0.32 -0.04 0.48 s-0.12 0.24 -0.24 0.28 c-0.2 0.04 -0.36 0.12 -0.56 0.12 c-0.64 0 -1.24 0.16 -1.8 0.32 c-0.68 0.16 -1.32 0.4 -2 0.6 c-0.16 0.04 -0.2 0.16 -0.2 0.32 c0 0.8 -0.08 1.6 0 2.36 c0.04 0.2 0.04 0.4 0.04 0.6 l0 6.64 c0 1.04 -0.08 2.12 -0.12 3.16 c0 0.16 -0.12 0.28 -0.28 0.28 c-0.24 0 -0.48 0.04 -0.72 0.08 c-0.64 0.08 -1.32 0.12 -1.96 -0.04 c-0.24 -0.08 -0.36 -0.2 -0.36 -0.4 c-0.08 -0.36 -0.12 -0.76 -0.12 -1.12 c-0.08 -3.2 -0.04 -6.4 -0.04 -9.6 c0 -0.24 0.04 -0.48 -0.08 -0.72 c-0.08 0 -0.2 0 -0.28 0.04 c-0.68 0.24 -1.32 0.48 -2 0.72 c-0.2 0.08 -0.28 0.2 -0.28 0.4 l0 0.64 l0 6.2 c0 0.28 0 0.56 -0.04 0.8 c0 0.2 -0.08 0.28 -0.28 0.32 c-0.56 0.08 -1.16 0.16 -1.76 0.16 c-0.24 0 -0.48 -0.04 -0.72 -0.12 c-0.04 0 -0.08 0 -0.12 -0.04 c-0.2 -0.08 -0.32 -0.2 -0.32 -0.44 c-0.04 -0.4 -0.04 -0.84 -0.04 -1.24 c-0.04 -1.64 -0.04 -3.24 -0.04 -4.88 l0 -0.64 c0 -0.36 -0.04 -0.4 -0.4 -0.4 c-0.16 -0.04 -0.36 -0.04 -0.56 -0.08 c-0.12 0 -0.2 -0.08 -0.24 -0.16 c-0.12 -0.4 -0.24 -0.8 -0.2 -1.24 c0 -0.32 0 -0.68 0.08 -1 c0.08 -0.2 0.16 -0.36 0.4 -0.4 c0.28 -0.12 0.6 -0.2 0.92 -0.28 c0.04 -0.12 0.04 -0.24 0.04 -0.36 c0.04 -1.04 0.04 -2.04 0.08 -3.08 c0 -0.6 0 -1.2 0.04 -1.76 c0.08 -0.6 0.04 -1.2 0.08 -1.76 c0.04 -1.04 0.04 -2.04 0.08 -3.04 c0.04 -0.72 0.04 -1.44 0.08 -2.12 l0.12 -1.56 c0 -0.16 0.04 -0.32 0.08 -0.52 l0.24 -1.08 c0.04 -0.28 0.36 -0.56 0.64 -0.6 l0.32 0 c0.56 0 0.64 0.16 0.68 0.56 c0.04 0.12 0.04 0.2 0.08 0.28 c0.24 0.88 0.32 1.76 0.36 2.64 c0.04 1.12 0.12 2.24 0.12 3.36 c0 0.12 -0.04 0.2 0 0.32 c0.12 1.08 0.12 2.16 0.12 3.24 c0 0.56 0.04 1.12 0.04 1.68 l0 0.28 c0.12 0.68 0.08 1.36 0.08 2 c0 0.16 0.04 0.28 0.04 0.44 c0 0.04 0.08 0.08 0.12 0.08 l0.12 0 l2.16 -0.84 c0.16 -0.08 0.28 -0.16 0.28 -0.36 c0.04 -0.88 0.04 -1.72 0.08 -2.6 c0 -1.24 0 -2.48 0.04 -3.76 c0 -0.64 0.08 -1.32 0.12 -1.96 c0 -0.32 0 -0.6 0.04 -0.88 c0 -1.2 0.04 -2.36 0.08 -3.56 c0.04 -0.64 0.12 -1.32 0.16 -1.96 c0 -0.16 0.04 -0.32 0.08 -0.48 z M102.03000000000002 28.880000000000003 l-0.12 0.24 l0 0.44 c-0.04 1.56 -0.04 3.12 -0.08 4.68 c-0.04 1.2 -0.12 2.36 -0.2 3.56 c0 0.2 -0.08 0.4 -0.08 0.6 c-0.04 0.16 -0.12 0.24 -0.28 0.32 c-0.16 0.04 -0.32 0.08 -0.48 0.16 c-0.56 0.12 -1.08 0.16 -1.64 0 c-0.16 -0.08 -0.28 -0.2 -0.32 -0.36 c-0.04 -0.12 -0.08 -0.24 -0.08 -0.36 c-0.08 -0.68 -0.16 -1.32 -0.16 -2 c-0.08 -1.16 -0.04 -2.32 -0.08 -3.48 c-0.04 -0.96 -0.04 -1.92 -0.08 -2.84 c0 -0.12 0.04 -0.24 -0.08 -0.36 c-0.24 -0.08 -0.48 -0.04 -0.72 0 c-1.4 0.24 -2.84 0.48 -4.24 0.72 l-0.36 0.12 c-0.04 0.04 -0.12 0.12 -0.12 0.16 c-0.04 0.16 -0.04 0.28 -0.04 0.44 l-0.12 5.64 c0 0.4 -0.08 0.76 -0.12 1.12 c-0.04 0.2 0.04 0.48 -0.16 0.64 c-0.12 0.12 -0.36 0.12 -0.52 0.2 c-0.28 0.12 -0.6 0.16 -0.88 0.16 l-0.6 0 c-0.24 0 -0.44 -0.08 -0.64 -0.16 c-0.12 0 -0.2 -0.08 -0.2 -0.16 c-0.12 -0.52 -0.24 -1.04 -0.24 -1.56 c-0.04 -1.68 -0.04 -3.36 -0.04 -5.04 l0 -0.68 c-0.04 -0.2 -0.12 -0.28 -0.28 -0.28 c-0.36 0 -0.68 0.04 -1.04 0.08 c-0.68 0.04 -1.32 -0.08 -2 -0.2 c-0.08 -0.04 -0.16 -0.12 -0.2 -0.2 c-0.08 -0.36 -0.2 -0.68 -0.24 -1 c-0.04 -0.36 0 -0.64 0.04 -0.96 c0.04 -0.16 0.16 -0.28 0.32 -0.32 c0.28 -0.08 0.56 -0.12 0.88 -0.12 c0.76 -0.04 1.52 -0.2 2.24 -0.36 c0.08 0 0.16 -0.04 0.2 -0.08 c0.12 -0.24 0.08 -0.52 0.08 -0.76 l0 -6 l0 -3.16 c-0.04 -0.44 0.04 -0.88 0.24 -1.28 c0.36 -0.84 0.72 -1.68 1.12 -2.52 c0 -0.08 0.08 -0.16 0.16 -0.24 c0 -0.04 0.08 -0.04 0.08 -0.08 c0.4 -0.64 1.04 -0.96 1.56 -1.36 c0.28 -0.2 0.56 -0.32 0.92 -0.32 c0.2 -0.04 0.4 -0.08 0.6 -0.08 c0.12 -0.04 0.28 -0.04 0.4 -0.08 c0.36 -0.12 0.68 -0.2 1.04 -0.04 c0.08 0.04 0.2 0.04 0.28 0.04 c0.28 -0.12 0.52 -0.04 0.8 0 c0.44 0.12 0.92 0.28 1.28 0.56 c0.24 0.16 0.36 0.4 0.64 0.52 c0.24 0.08 0.36 0.32 0.52 0.48 c0.32 0.32 0.6 0.64 0.92 0.92 c0.24 0.24 0.44 0.52 0.64 0.8 c0.08 0.12 0.12 0.32 0.2 0.48 c0.12 0.36 0.24 0.68 0.24 1.08 c0 0.2 0.04 0.4 0.08 0.56 c0.08 0.36 0.16 0.68 0.24 1.04 c0.28 0.8 0.32 1.64 0.52 2.44 c0.12 0.64 0.12 1.24 0.12 1.88 l0 0.04 l0 2.76 c0 0.12 0 0.24 0.16 0.36 c0.84 -0.08 1.76 -0.04 2.64 -0.04 c0.12 0 0.24 0 0.36 0.04 c0.04 0 0.16 0.08 0.16 0.16 c0.04 0.28 0.12 0.6 0.16 0.92 c0.04 0.44 0 0.84 0 1.28 c0 0.16 -0.04 0.28 -0.08 0.44 s-0.16 0.28 -0.36 0.32 c-0.16 0.04 -0.28 0.04 -0.44 0.04 l-1.4 0 c-0.4 0 -0.76 0 -1.12 0.04 z M98.39000000000001 23.28 l0 -2.4 c0 -0.28 0 -0.56 -0.16 -0.84 c-0.08 -0.12 -0.08 -0.24 -0.12 -0.36 c-0.04 -0.4 -0.16 -0.76 -0.36 -1.12 l-0.24 -0.6 c-0.16 -0.52 -0.4 -1 -0.8 -1.4 c-0.24 -0.24 -0.44 -0.48 -0.68 -0.72 c-0.08 -0.08 -0.24 -0.16 -0.36 -0.2 c-0.2 -0.08 -0.44 -0.12 -0.68 -0.12 c-0.72 0.04 -1 0.28 -1.12 0.92 c-0.04 0.04 -0.04 0.08 -0.04 0.12 c0 0.32 -0.12 0.6 -0.2 0.88 c-0.12 0.36 -0.2 0.72 -0.24 1.08 c-0.04 0.28 -0.08 0.52 -0.2 0.8 c-0.2 0.56 -0.32 1.2 -0.32 1.8 c0 0.48 -0.04 0.96 -0.04 1.4 c0 0.2 0 0.4 0.04 0.6 c0.08 0.16 0.04 0.36 0.04 0.52 c-0.12 0.52 -0.12 1.04 -0.08 1.56 c0.04 0.48 0.08 0.96 0.08 1.48 c0 0.08 0 0.2 0.04 0.28 c0 0.04 0.04 0.08 0.08 0.08 c0.12 0.04 0.2 0.04 0.32 0 c0.6 -0.08 1.2 -0.16 1.8 -0.28 c0.84 -0.2 1.68 -0.32 2.48 -0.48 c0.2 0 0.36 -0.04 0.52 -0.08 s0.24 -0.12 0.24 -0.32 l0 -0.52 l0 -2.08 z"></path></g></svg>