<svg width="100" height="100" viewBox="0 0 100 100" fill="none" xmlns="http://www.w3.org/2000/svg">
<path d="M69.9512 30.6445C71.8066 28.7988 71.8066 25.791 69.9512 23.9453L63.125 17.1191L63.1348 17.1289C61.3281 15.3223 58.2227 12.2168 53.8281 7.83202C51.7578 5.81053 48.4082 5.83006 46.3574 7.88084L7.90039 46.3086C5.83008 48.3691 5.83008 51.709 7.90039 53.7695L46.3477 92.1875C48.418 94.248 51.7578 94.248 53.8184 92.1875L69.9414 76.0742C71.7969 74.2285 71.7969 71.2207 69.9414 69.375C68.0859 67.5293 65.0879 67.5293 63.2324 69.375L51.0254 81.6015C50.5176 82.1094 49.7266 82.1094 49.2188 81.6015L18.5059 50.918C17.998 50.4101 17.998 49.6191 18.5059 49.1113L49.209 18.4277C49.248 18.3887 49.2969 18.3594 49.3359 18.3203C49.8438 17.9199 50.5469 17.959 51.0156 18.4277L63.2422 30.6445C65.0977 32.5 68.1055 32.5 69.9512 30.6445Z" fill="#E5E3E3"/>
<path d="M39.9023 50.2344C39.9023 52.985 40.996 55.6229 42.9428 57.5678C44.8896 59.5128 47.53 60.6055 50.2832 60.6055C53.0364 60.6055 55.6768 59.5128 57.6236 57.5678C59.5704 55.6229 60.6641 52.985 60.6641 50.2344C60.6641 47.4838 59.5704 44.8459 57.6236 42.9009C55.6768 40.9559 53.0364 39.8633 50.2832 39.8633C47.53 39.8633 44.8896 40.9559 42.9428 42.9009C40.996 44.8459 39.9023 47.4838 39.9023 50.2344Z" fill="#E5E3E3"/>
<path d="M92.2656 46.4648L80.2637 34.5215C78.4082 32.6758 75.4004 32.6758 73.5547 34.5313C71.6992 36.377 71.6992 39.3848 73.5547 41.2305L81.6602 49.3262C82.168 49.834 82.168 50.625 81.6602 51.1328L73.6719 59.1113C71.8164 60.957 71.8164 63.9648 73.6719 65.8106C75.5273 67.6563 78.5254 67.6563 80.3809 65.8106L92.2754 53.9258C94.3359 51.8652 94.3359 48.5352 92.2656 46.4648Z" fill="#E5E3E3"/>
</svg>
