<svg width="100" height="100" viewBox="0 0 100 100" fill="none" xmlns="http://www.w3.org/2000/svg">
<g clip-path="url(#clip0_15_906)">
<path d="M91.6667 0H8.33333C3.73333 0 0 3.72917 0 8.33333V91.6667C0 96.2708 3.73333 100 8.33333 100H91.6667C96.2667 100 100 96.2708 100 91.6667V8.33333C100 3.72917 96.2667 0 91.6667 0ZM74.2208 70.2208V70.2292C73.3875 72.2375 72.0667 74.0083 70.375 75.3708C68.625 76.7875 66.4083 77.9542 63.6792 78.7875C60.9542 79.6333 57.7125 80.0583 53.9583 80.0583H27.1583V21.725H55.5C60.7417 21.725 64.9417 22.9042 68.0833 25.3083C71.25 27.725 72.825 31.325 72.825 36.1833C72.825 39.1208 72.1083 41.6417 70.6667 43.725C69.2333 45.7958 67.1667 47.4167 64.5 48.5417V48.7333C68.0583 49.4833 70.8125 51.1708 72.625 53.7958C74.4375 56.4208 75.3667 59.7375 75.3667 63.7417C75.3667 65.9833 74.9333 68.1167 74.1167 70.1083L74.2208 70.2208Z" fill="#E5E3E3"/>
<path d="M62.6542 55.8542C60.9458 54.2917 58.5459 53.5292 55.4459 53.5292H37.4375V71.7292H55.4958C58.5792 71.7292 60.9958 70.9292 62.7042 69.3125C64.4125 67.7083 65.2875 65.4208 65.2875 62.4792C65.2583 59.6042 64.4125 57.3792 62.7042 55.8542H62.6542ZM60.1375 44.0917H60.1542C61.8042 42.6917 62.6125 40.6875 62.6125 38.075C62.6125 35.1417 61.8833 33.0583 60.4042 31.8667C58.9375 30.6792 56.8208 30.0625 54.0375 30.0625H37.3708V46.1583H54.0375C56.4667 46.1583 58.5375 45.45 60.1375 44.0917Z" fill="#E5E3E3"/>
</g>
<defs>
<clipPath id="clip0_15_906">
<rect width="100" height="100" fill="white"/>
</clipPath>
</defs>
</svg>
