<svg width="100" height="100" viewBox="0 0 100 100" fill="none" xmlns="http://www.w3.org/2000/svg">
<g clip-path="url(#clip0_15_883)">
<path d="M58.8963 49.8916C58.8963 55.4375 54.9 59.9333 49.9704 59.9333C45.0407 59.9333 41.0444 55.4375 41.0444 49.8916C41.0444 44.3458 45.0407 39.85 49.9704 39.85C54.9 39.85 58.8963 44.3458 58.8963 49.8916Z" fill="#E5E3E3"/>
<path d="M49.9667 72.8917C49.2222 72.9125 48.3445 72.925 47.463 72.925C37.0519 72.925 27.0111 71.1542 17.563 67.8667L18.2778 68.0792C13.2741 66.2625 8.93705 63.5833 5.16298 60.15L5.24076 60.2167C2.31854 57.8375 0.351869 54.1542 0.0185352 49.9375L0.0148315 49.8833C0.0148315 43.2417 6.4852 36.7417 17.3519 32.5C26.6556 29.0542 37.363 27.0667 48.4815 27.0667C48.9963 27.0667 49.5111 27.0708 50.0259 27.0792H49.9482C50.3778 27.0708 50.8815 27.0667 51.3889 27.0667C62.3704 27.0667 72.9445 29.0208 82.8556 32.6375L82.1334 32.4083C86.9667 34.175 91.163 36.725 94.8482 39.9667L94.7593 39.8917C97.6296 42.1667 99.5667 45.7417 99.8926 49.8375L99.8963 49.8917C99.8963 56.7917 92.6593 63.775 80.9963 68.1166C72.2445 71.1542 62.1815 72.9042 51.7556 72.9042C51.1259 72.9042 50.5 72.8958 49.8741 72.8833H49.9667V72.8917ZM49.9667 31.8917C49.5741 31.8833 49.1074 31.8833 48.6408 31.8833C37.9704 31.8833 27.6926 33.7667 18.0519 37.2542L18.7593 37.0333C8.76668 40.9542 4.2852 46.3167 4.2852 49.8958C4.2852 53.6167 9.10372 59.4792 19.6667 63.5375C27.9963 66.4417 37.5704 68.1166 47.4926 68.1166C48.363 68.1166 49.2296 68.1042 50.0926 68.0792L49.9667 68.0833C50.5074 68.0958 51.1445 68.1041 51.7815 68.1041C61.7222 68.1041 71.3148 66.4375 80.3556 63.3417L79.663 63.5458C90.626 59.4458 95.663 53.5833 95.663 49.8792C95.2852 47.2208 93.9519 44.9792 92.0852 43.5667L92.0556 43.5458C88.8482 40.7375 85.1074 38.475 81.0556 36.9875L80.7963 36.9042C72.0259 33.7125 61.9334 31.8708 51.463 31.8708C50.9371 31.8708 50.4148 31.875 49.8926 31.8833H49.9704L49.9667 31.8917Z" fill="#E5E3E3"/>
<path d="M29.7148 99.9416C29.6555 99.9416 29.5852 99.9458 29.5185 99.9458C27.8407 99.9458 26.2667 99.45 24.9074 98.5833L24.9555 98.6124C19.8518 95.2791 18.0741 85.7291 20.2148 73.0249C22.7963 59.9916 26.9815 48.4666 32.6 38.025L32.3444 38.5416C37.8963 27.4791 44.6037 18.0166 52.437 9.90829L52.5111 9.83329C55.9296 6.31663 59.9296 3.42913 64.3148 1.38329L64.5852 1.27079C66.0926 0.454126 67.8629 -0.020874 69.7333 -0.020874C71.5889 -0.020874 73.3481 0.449959 74.9185 1.28746L74.8444 1.25413C80.1592 4.69579 81.9222 15.2541 79.4296 28.7791C76.763 41.1416 72.6963 52.0291 67.3481 61.9416L67.6074 61.4291C62.2296 72.3875 55.7222 81.7708 48.1037 89.8416L48.0518 89.8958C44.5037 93.55 40.337 96.5208 35.7518 98.5708L35.4778 98.6791C33.7741 99.4333 31.8037 99.8958 29.7407 99.95H29.7185L29.7148 99.9416ZM34.1778 39.7458L36.0259 40.9458C30.9111 50.4458 26.8963 61.4708 24.5222 73.1958L24.3963 73.9458C22.4222 85.6499 24.3259 92.6875 27.0629 94.4708C27.7704 94.8958 28.6074 95.1416 29.4963 95.1416C29.5704 95.1416 29.6481 95.1416 29.7222 95.1375H29.7111C33.2481 95.1375 38.8148 92.6166 45.2518 86.2958C52.5704 78.5166 58.7852 69.5333 63.6667 59.6125L63.9185 59.05C68.8 50.0666 72.7 39.6625 75.1222 28.6041L75.2629 27.8458C77.5926 15.1041 75.5815 7.30413 72.7222 5.43746C71.8407 5.04579 70.8185 4.82079 69.7518 4.82079C68.4037 4.82079 67.1296 5.18329 66.0037 5.82079L66.0518 5.79579C61.9111 7.73329 58.3555 10.3208 55.2852 13.4875L55.3111 13.4625C47.7518 21.3 41.3407 30.3666 36.2889 40.4125L36.0333 40.9625L34.1778 39.7458Z" fill="#E5E3E3"/>
<path d="M70.2222 100C65.3852 100 59.2593 96.7208 52.8519 90.5167C44.7963 82.2542 37.9741 72.675 32.6148 62.0416L32.3482 61.4708C27.0519 51.6833 22.9 40.325 20.4408 28.2416L20.3074 27.4708C19.7074 24.5166 19.363 21.1291 19.363 17.65C19.363 15.4541 19.5 13.3 19.763 11.1875L19.737 11.4291C20.0519 7.27082 21.9889 3.68748 24.8185 1.43332L24.8556 1.40415C30.1519 -2.05418 39.1704 1.50415 48.3445 10.6875C55.8334 18.6625 62.2259 27.825 67.3 37.9375L67.5667 38.5125C72.8556 48.0833 77.0371 59.1833 79.5741 71.0042L79.7148 71.7791C80.3185 74.7333 80.6667 78.1292 80.6667 81.6125C80.6667 84.0166 80.5037 86.375 80.1852 88.6792L80.2148 88.4208C79.8334 92.6792 77.8296 96.3416 74.9222 98.6541L74.8815 98.6833C73.5926 99.5125 72.0519 100 70.4111 100C70.3445 100 70.2778 100 70.2111 99.9958L70.2222 100ZM36.0445 59.0708C41.4445 69.7833 47.9593 78.95 55.5667 86.8041L55.6408 86.8792C63.663 94.6416 70.0259 96.3208 72.7815 94.5208C75.6445 92.6625 77.7408 85.0375 75.5741 72.7166C72.9741 60.675 68.9556 50.075 63.6519 40.4625L63.8926 40.9291C58.7852 30.6958 52.6815 21.9208 45.5667 14.3291L45.5222 14.2833C36.8778 5.64165 29.8741 3.69998 27.0111 5.55832C25.2593 7.16248 24.1074 9.52498 23.9556 12.1958V12.225C23.7519 13.85 23.637 15.725 23.637 17.6333C23.637 20.7875 23.9556 23.8541 24.5556 26.8041L24.5074 26.5291C27 38.8291 30.9778 49.6917 36.2926 59.5458L36.0482 59.0583L36.0445 59.0708Z" fill="#E5E3E3"/>
</g>
<defs>
<clipPath id="clip0_15_883">
<rect width="100" height="100" fill="white"/>
</clipPath>
</defs>
</svg>
