<svg width="100" height="100" viewBox="0 0 100 100" fill="none" xmlns="http://www.w3.org/2000/svg">
<path d="M57.4265 80.6691C57.4265 81.0809 57.0882 81.4044 56.6912 81.4044H32.4412C32.0441 81.4044 31.7059 81.0809 31.7059 80.6691C31.7059 80.2721 32.0441 79.9338 32.4412 79.9338C33.9118 79.9338 35.0147 79.4779 35.8235 78.5368C37.2206 76.9191 37.3529 74.2426 37.2941 72.6397H51.8382C51.7794 74.2574 51.9265 76.9338 53.3088 78.5515C54.1176 79.4779 55.2206 79.9338 56.6912 79.9338C57.0882 79.9338 57.4265 80.2721 57.4265 80.6691ZM78.2353 10.375H10.8971C6.91176 10.375 3.69118 13.5956 3.69118 17.5809V63.9632C3.69118 67.9485 6.91176 71.1691 10.8971 71.1691H56.7353V62.1544H10.8971C9.91177 62.1544 9.10294 61.3456 9.10294 60.3456V17.5809C9.10294 16.5809 9.91177 15.7721 10.8971 15.7721H78.2353C79.2206 15.7721 80.0294 16.5809 80.0294 17.5809V38.2279H85.4412V17.5809C85.4412 13.5956 82.2206 10.375 78.2353 10.375ZM44.5735 64.7426C45.6176 64.7426 46.4706 65.5956 46.4706 66.6691C46.4706 67.7279 45.6176 68.5809 44.5735 68.5809C44.3212 68.5828 44.0711 68.5348 43.8374 68.4396C43.6038 68.3444 43.3913 68.2039 43.2122 68.0262C43.0331 67.8484 42.891 67.637 42.794 67.4041C42.697 67.1712 42.6471 66.9214 42.6471 66.6691C42.6471 65.5956 43.5 64.7426 44.5735 64.7426Z" fill="#E5E3E3"/>
<path d="M78.5588 17.5809V23.1839H10.5735V17.5809C10.5735 17.4044 10.7206 17.2427 10.8971 17.2427H78.2353C78.4118 17.2427 78.5588 17.4044 78.5588 17.5809ZM45.9412 27.6H72.6574V29.0706H45.9412V27.6ZM39.5574 29.8059V36.4236C39.5574 36.8136 39.4024 37.1876 39.1266 37.4634C38.8508 37.7392 38.4768 37.8941 38.0868 37.8941H17.0132C16.6232 37.8941 16.2492 37.7392 15.9734 37.4634C15.6976 37.1876 15.5426 36.8136 15.5426 36.4236V29.8059C15.5426 29.4159 15.6976 29.0418 15.9734 28.766C16.2492 28.4903 16.6232 28.3353 17.0132 28.3353H38.0868C38.4768 28.3353 38.8508 28.4903 39.1266 28.766C39.4024 29.0418 39.5574 29.4159 39.5574 29.8059ZM45.9412 32.3794H72.6574V33.85H45.9412V32.3794ZM45.9412 37.1589H54.3044V38.6294H45.9412V37.1589ZM52.0632 44.5118V56.5559C52.0632 56.9459 51.9083 57.32 51.6325 57.5958C51.3567 57.8716 50.9827 58.0265 50.5926 58.0265H38.5338C38.1438 58.0265 37.7697 57.8716 37.494 57.5958C37.2182 57.32 37.0632 56.9459 37.0632 56.5559V44.5118C37.0632 44.1218 37.2182 43.7477 37.494 43.4719C37.7697 43.1961 38.1438 43.0412 38.5338 43.0412H50.5926C50.9827 43.0412 51.3567 43.1961 51.6325 43.4719C51.9083 43.7477 52.0632 44.1218 52.0632 44.5118ZM30.5382 44.5118V56.5559C30.5382 56.9459 30.3833 57.32 30.1075 57.5958C29.8317 57.8716 29.4577 58.0265 29.0676 58.0265H17.0088C16.6188 58.0265 16.2447 57.8716 15.969 57.5958C15.6932 57.32 15.5382 56.9459 15.5382 56.5559V44.5118C15.5382 44.1218 15.6932 43.7477 15.969 43.4719C16.2447 43.1961 16.6188 43.0412 17.0088 43.0412H29.0676C29.4577 43.0412 29.8317 43.1961 30.1075 43.4719C30.3833 43.7477 30.5382 44.1218 30.5382 44.5118ZM91.8971 39.6986H62.6176C60.1912 39.6986 58.2059 41.6691 58.2059 44.1103V85.2133C58.2059 87.6397 60.1912 89.625 62.6176 89.625H91.8971C94.3382 89.625 96.3088 87.6397 96.3088 85.2133V44.1103C96.3088 41.6691 94.3382 39.6986 91.8971 39.6986ZM76.4706 87.8897C75.6029 87.8897 74.8971 87.1839 74.8971 86.3162C74.8953 86.0025 74.9869 85.6954 75.1601 85.4338C75.3333 85.1722 75.5803 84.968 75.8698 84.8472C76.1593 84.7263 76.4782 84.6943 76.7859 84.755C77.0937 84.8158 77.3765 84.9667 77.5983 85.1885C77.8201 85.4103 77.971 85.6931 78.0318 86.0009C78.0925 86.3086 78.0605 86.6275 77.9396 86.917C77.8187 87.2065 77.6146 87.4535 77.353 87.6267C77.0914 87.7999 76.7843 87.8915 76.4706 87.8897ZM93 81.5368C93 82.3456 92.3529 83.0074 91.5294 83.0074H62.9853C62.1765 83.0074 61.5147 82.3456 61.5147 81.5368V44.8456C61.5147 44.0221 62.1765 43.375 62.9853 43.375H91.5294C92.3529 43.375 93 44.0221 93 44.8456V81.5368Z" fill="#E5E3E3"/>
<path d="M66.1074 55.0838H88.4162V68.9588H66.1074V55.0838ZM66.1074 47.3867H88.4162V51.072H66.1074V47.3867ZM66.1029 77.0514H84.2206V78.522H66.1029V77.0514ZM66.1029 72.6397H88.4118V74.1102H66.1029V72.6397Z" fill="#E5E3E3"/>
</svg>
