<svg width="148" height="100" viewBox="0 0 148 100" fill="none" xmlns="http://www.w3.org/2000/svg">
<g clip-path="url(#clip0_15_879)">
<path d="M103.296 57.4833C103.443 57.4792 103.615 57.475 103.792 57.475C106.921 57.475 109.881 58.2833 112.507 59.725L112.391 59.6667C114.784 60.9625 116.75 62.8792 118.172 65.2292L118.206 65.2875C119.328 67.1042 119.995 69.35 119.995 71.7667C119.995 71.9417 119.992 72.1167 119.984 72.2875V72.2625C119.868 74.675 118.881 76.8042 117.365 78.2958L117.358 78.3042C116.529 79.2083 115.527 79.9167 114.413 80.3667L114.356 80.3875C113.731 80.5264 113.387 80.4222 113.325 80.075C113.262 79.7278 113.544 79.3458 114.169 78.9292C115.865 77.7875 117.092 75.9458 117.538 73.775L117.549 73.7208C117.56 73.5458 117.568 73.3417 117.568 73.1333C117.568 71.8375 117.29 70.6125 116.799 69.5292L116.818 69.575C116.004 67.6875 114.788 66.1375 113.291 65.0167L113.253 64.9917C111.014 63.3917 108.327 62.3417 105.439 62.0792L105.379 62.075C104.396 61.9125 103.263 61.8208 102.107 61.8208C99.1018 61.8208 96.2317 62.45 93.5905 63.5958L93.7481 63.5333C94.2921 64.9458 94.6335 66.5833 94.6823 68.3V68.3208C94.6222 71.8417 92.9189 74.9042 90.3865 76.6125L90.3452 76.6375C89.1822 77.5542 87.8541 78.3583 86.4397 78.9833L86.3083 79.0333C85.4492 79.5 84.44 79.7708 83.3745 79.7708C83.2507 79.7708 83.1306 79.7667 83.0105 79.7583H83.0293C80.6557 79.2056 80.0929 76.9139 81.341 72.8833C81.885 71.1292 82.6466 69.6083 83.6108 68.2708L83.5883 68.3C84.8226 66.5083 86.177 64.9375 87.674 63.5458L87.7152 63.5083L87.3476 62.9C86.661 61.6 86.0307 60.0875 85.5242 58.5083L85.4717 58.3167C85.0965 56.9278 84.7839 55.6097 84.5338 54.3625L84.3462 52.9042L82.4703 56.8583C80.8445 60.1917 79.2813 63.1069 77.7806 65.6042L77.2178 66.6458C77.8481 68.3458 78.3133 70.3167 78.5234 72.375L78.5309 72.4792C78.5459 72.675 78.5535 72.9083 78.5535 73.1417C78.5535 76.3 77.1503 79.0917 74.9968 80.7958L74.9705 80.8167C73.9425 81.5208 72.7157 82.25 71.4439 82.9L71.2188 83.0042C69.8944 83.6417 68.3599 84.0583 66.7504 84.15H66.7167C66.5928 84.1583 66.4465 84.1667 66.3002 84.1667C65.3623 84.1667 64.4731 83.9292 63.6777 83.5083L63.7152 83.525C63.2388 83.0708 62.9386 82.4042 62.9386 81.6583C62.9386 81.2792 63.0174 80.9167 63.1562 80.5958L63.1487 80.6125C64.6494 78.275 66.1276 76.2417 67.6996 74.3L67.6508 74.3625L71.7778 68.5333L71.0312 66.6583C70.4309 65.4333 69.8569 63.9875 69.3954 62.4875L69.3429 62.2875C68.9677 60.8986 68.6551 59.5806 68.4049 58.3333L68.2174 56.875L66.3415 61.875C64.8433 65.7611 63.4676 69.0931 62.2145 71.8708C60.3462 76.0375 58.7829 79.2319 57.5248 81.4542L57.1497 82.0792C55.6515 84.7153 54.2133 86.0333 52.8352 86.0333C51.457 86.0333 50.5228 85.0611 50.0326 83.1167C49.6724 81.6833 49.4623 80.0375 49.4623 78.3375C49.4623 78.1875 49.4623 78.0375 49.4661 77.8875V77.9083L49.8412 74.9917V75.2C48.8408 77.8361 47.8403 80.2653 46.8398 82.4875C46.1758 83.9292 45.493 85.1583 44.7276 86.3167L44.7764 86.2375C44.0035 87.1375 42.9155 87.6958 41.7112 87.6958C41.6999 87.6958 41.6924 87.6958 41.6812 87.6958C41.6024 87.7042 41.5123 87.7042 41.4223 87.7042C40.4731 87.7042 39.6102 87.3042 38.9574 86.65L38.9611 86.6542C37.6518 85.1625 36.6801 83.3 36.1773 81.2208L36.1586 81.1333C35.5433 79.2375 35.1906 77.0458 35.1906 74.7625C35.1906 74.4667 35.1981 74.175 35.2094 73.8875V73.9292C35.5058 70.6125 36.1023 67.575 36.9765 64.6792L36.8977 64.975L30.1483 69.35V69.5583C31.1275 71.8167 31.7015 74.4667 31.7015 77.2667C31.7015 77.7792 31.6827 78.2875 31.6452 78.7875L31.649 78.7208C31.4501 83.0125 30.2158 86.9417 28.2236 90.2625L28.2724 90.1792C26.1827 93.8625 23.17 96.7083 19.5908 98.3542L19.467 98.4042C17.4523 99.4083 15.0962 99.9958 12.62 99.9958C11.0518 99.9958 9.52859 99.7625 8.08792 99.3208L8.20798 99.35C7.01492 98.9042 6.03946 98.0208 5.42042 96.8792L5.40916 96.8542C4.53501 95.4458 3.9835 93.725 3.89721 91.8708V91.8458C3.85594 91.425 3.83343 90.9375 3.83343 90.4417C3.83343 88.3042 4.27238 86.2792 5.0565 84.475L5.02273 84.5583C7.17624 80.4792 10.1551 77.175 13.7118 74.85L13.8244 74.7833C16.3418 72.8458 19.2344 70.9667 22.2546 69.3292L22.6522 69.1333L23.5902 68.5083C22.4647 67.5361 20.4012 65.8694 17.3998 63.5083C13.3892 60.525 9.90377 57.5125 6.61723 54.2542L6.71103 54.3458C3.53329 51.3083 1.21845 47.25 0.179213 42.6292L0.149199 42.4708C0.051653 41.8292 -0.00462341 41.0917 -0.00462341 40.3417C-0.00462341 37.9917 0.539382 35.7833 1.49233 33.8625L1.46231 33.9333C3.5633 28.9167 6.47466 24.6875 10.0463 21.2875L10.0914 21.2458C13.9557 17.1917 18.3302 13.6625 23.0799 10.8042L23.4064 10.625C27.6496 7.90417 32.6057 5.375 37.7718 3.34583L38.4096 3.12917C43.2081 1.17917 48.7495 0.0375 54.5272 0.0166667H54.5347C54.7973 0.00833333 55.1087 0 55.4201 0C60.076 0 64.4806 1.19583 68.3974 3.325L68.2249 3.2375C71.6014 4.94583 74.1301 8.1625 75.1431 12.0958L75.1656 12.1958C75.477 13.5375 75.6533 15.0792 75.6533 16.6667C75.6533 19.3 75.1619 21.8083 74.2802 24.0833L74.3215 23.9625C72.7157 28.2833 70.4309 31.9625 67.5796 34.9917L67.5683 35.0042C64.6795 38.1833 61.2166 40.725 57.371 42.4208L57.1647 42.5C53.1353 44.4208 48.4568 45.6292 43.5458 45.8292L43.4745 45.8333C42.7542 45.925 41.9213 45.975 41.0771 45.975C38.8561 45.975 36.7138 45.6208 34.6879 44.9583L34.8492 45.0042C33.0371 44.3625 31.4726 43.3667 30.1445 42.075L30.1595 42.0875C29.2291 41.2458 28.4712 40.2083 27.931 39.0292L27.9085 38.975C27.5333 37.8639 27.502 37.2042 27.8147 36.9958C28.1273 36.7875 28.3462 36.7528 28.4712 36.8917L29.4092 37.9333C30.4559 39.0125 31.7052 39.8625 33.0859 40.4042L33.1609 40.4292C35.0593 41.1625 37.2503 41.5875 39.5277 41.5875C40.2593 41.5875 40.9796 41.5458 41.6887 41.4583L41.6024 41.4667C47.6727 40.6708 53.1465 38.3708 57.87 34.9125L57.7312 35.0083C61.7231 32.3708 64.9533 28.7458 67.2269 24.425L67.2944 24.2833C68.4237 22.4417 69.099 20.1667 69.099 17.7167C69.099 16.2125 68.8439 14.7708 68.3787 13.4458L68.4049 13.525C67.0018 11.0625 64.732 9.32917 62.0832 8.85L62.0307 8.84167C59.9747 8.27917 57.6111 7.95417 55.1838 7.95417C53.2291 7.95417 51.3157 8.1625 49.4661 8.5625L49.6537 8.52917C43.3244 9.79583 37.6668 11.9667 32.4481 14.95L32.7895 14.7708C17.4123 23.3819 9.47232 32.2 8.96958 41.225V41.4292C8.96958 45.0667 10.2564 48.3708 12.3537 50.8125L12.3499 50.8083C14.7398 53.7583 17.381 56.3625 20.2661 58.6125L20.4124 58.7208C23.0424 60.9042 25.3685 63.1583 27.5333 65.5917L27.537 65.6L27.9122 66.0167L39.9178 58.7292C41.2872 56.5292 42.9343 54.6708 44.8251 53.1708L44.8852 53.125C46.3859 51.725 48.2918 50.8125 50.3815 50.6292L50.4153 50.625C50.4903 50.6167 50.5766 50.6167 50.6666 50.6167C52.066 50.6167 53.2666 51.5542 53.7843 52.8958L53.7918 52.9208C54.1858 53.9 54.4146 55.0458 54.4146 56.25C54.4146 56.6167 54.3921 56.9792 54.3509 57.3375L54.3546 57.2958L53.9907 59.35L54.5535 58.9333C54.9436 58.6042 55.4351 58.4083 55.9679 58.4083C56.3055 58.4083 56.6244 58.4875 56.9133 58.6292L56.8983 58.6208C57.6186 58.8292 58.1401 59.5458 58.1401 60.3958C58.1401 60.5417 58.1251 60.6833 58.0951 60.8208L58.0989 60.8083L57.5361 63.1C56.4106 68.0972 55.6615 71.7069 55.2888 73.9292C55.1012 74.65 54.9962 75.4792 54.9962 76.3375C54.9962 76.5167 54.9999 76.6917 55.0112 76.8667V76.8417C55.0737 77.675 55.1675 78.0917 55.2925 78.0917C55.4176 78.0917 55.6665 77.675 56.0392 76.8417L56.6019 75.3833C56.727 75.3833 56.727 75.4528 56.6019 75.5917L58.6654 70.8C63.5427 58.8611 66.1676 52.1944 66.5403 50.8L67.6658 46.8458C67.7909 46.5681 68.2911 46.2917 69.1666 46.0167C70.0557 45.75 71.0724 45.5958 72.1229 45.5958C72.2092 45.5958 72.2955 45.5958 72.3781 45.6H72.3668C74.1176 45.6 74.993 46.0861 74.993 47.0583L74.8054 48.1C74.3852 49.3833 73.9688 50.9875 73.6461 52.6292L73.6049 52.8917C73.5298 53.4292 73.4848 54.0458 73.4848 54.6792C73.4848 55.5208 73.5599 56.3417 73.7062 57.1375L73.6949 57.0583L73.8825 57.8875C74.2652 59.625 74.8467 61.15 75.6083 62.5417L75.5708 62.4708C77.069 59.6958 78.5072 56.85 79.8853 53.9333C80.9733 51.9208 81.9863 49.5875 82.8004 47.1458L82.8867 46.8542C83.1681 45.2833 83.4908 43.9583 83.8847 42.6667L83.8247 42.9C83.9497 42.4833 84.4837 42.1708 85.4267 41.9625C86.3196 41.7625 87.3438 41.65 88.3906 41.65H88.5256H88.5181C90.2689 41.65 91.2031 42.1361 91.3207 43.1083L90.9455 43.9375C90.499 45.3375 90.1089 47.0208 89.8462 48.75L89.8237 48.9375C89.79 49.3417 89.7675 49.8083 89.7675 50.2833C89.7675 51.2792 89.8575 52.2542 90.0263 53.1958L90.0113 53.1V53.9292C90.4428 55.7458 91.0843 57.3417 91.9247 58.7875L91.8872 58.7208L92.45 60.1792C95.5827 58.4708 99.2669 57.4708 103.161 57.4708H103.308H103.3L103.296 57.4833ZM22.8623 87.7042C25.4698 84.7125 27.0793 80.6292 27.0793 76.1292C27.0793 74.3917 26.8392 72.7167 26.3965 71.1417L26.4265 71.2583L23.4251 73.3417C20.3637 75.2792 17.7149 77.4417 15.3176 79.9L15.3476 79.8708C13.528 81.7292 12.1848 84.1333 11.5245 86.8458L11.502 86.95C10.9393 89.5194 11.2206 91.1861 12.3462 91.95C13.0327 92.3 13.8394 92.5042 14.6835 92.5042C15.6064 92.5042 16.4806 92.2625 17.2497 91.8292L17.216 91.8458C19.4445 90.9458 21.3316 89.5167 22.8323 87.6875L22.8436 87.675L22.8623 87.7042ZM47.9879 68.5208C48.6132 66.7153 49.301 64.5625 50.0513 62.0625C51.0518 58.7292 51.3957 56.7861 51.0831 56.2333C50.7704 55.6806 50.1764 55.6111 49.301 56.025C48.258 56.5875 47.3838 57.3583 46.686 58.3042L46.6748 58.3208C45.8944 59.4167 45.1515 60.6417 44.4912 61.9292L44.4237 62.0708C43.6658 63.45 43.0243 65.0375 42.5778 66.7208L42.5441 66.8625C41.82 69.0417 41.3998 71.5625 41.3998 74.1875C41.3998 74.5417 41.4073 74.8917 41.4223 75.2417V75.1917C41.5474 77.9667 41.9475 79.4597 42.6229 79.6708C43.2982 79.8819 44.0798 78.875 44.9677 76.65C45.8269 74.9292 46.5922 72.9292 47.1625 70.8333L47.215 70.6083C47.5877 69.625 47.8428 68.9292 47.9804 68.5208H47.9879ZM68.7951 79.5625C71.3951 78.2667 73.226 75.5375 73.4811 72.3083L73.4848 72.275V72.0667L71.4214 74.9833L67.6734 79.5667C67.6171 79.6167 67.5796 79.6917 67.5796 79.775C67.5796 79.8583 67.6171 79.9333 67.6696 79.9833C67.7897 80.1194 68.1648 79.9806 68.7951 79.5667V79.5625ZM84.9239 75.6042C87.7603 74.7042 89.8012 71.85 89.8012 68.4708C89.8012 68.4167 89.8012 68.3625 89.8012 68.3083V68.3167C89.7637 67.4833 89.6286 66.7 89.4073 65.9583L89.4223 66.0208C87.9629 67.4625 86.7661 69.1875 85.8994 71.1333L85.8581 71.2292C84.7301 73.7264 84.4149 75.1819 84.9127 75.5958L84.9239 75.6042Z" fill="#E5E3E3"/>
</g>
<defs>
<clipPath id="clip0_15_879">
<rect width="148" height="100" fill="white"/>
</clipPath>
</defs>
</svg>
