<svg width="100" height="100" viewBox="0 0 100 100" fill="none" xmlns="http://www.w3.org/2000/svg">
<path d="M15.2781 49.999C15.2758 63.3044 22.8768 75.441 34.848 81.2477L18.2841 35.8686C16.2984 40.3145 15.2743 45.1297 15.2781 49.999ZM50.6103 53.0363L40.1906 83.308C47.186 85.3679 54.6521 85.1741 61.531 82.7541C61.4344 82.602 61.3512 82.442 61.2823 82.2755L50.6103 53.0363ZM73.4405 48.2481C73.394 44.8522 72.403 41.5365 70.578 38.6724C68.7118 36.3243 67.5313 33.5058 67.1672 30.5285C67.083 27.2197 69.6895 24.4649 72.998 24.3663C73.1522 24.3663 73.2981 24.3849 73.4477 24.3942C59.3102 11.4441 37.3515 12.4069 24.4016 26.5442C23.1486 27.9119 22.0075 29.3778 20.989 30.9278C21.8038 30.9537 22.5718 30.97 23.2234 30.97C26.8545 30.97 32.4778 30.5283 32.4778 30.5283C33.2693 30.4825 33.948 31.087 33.9938 31.8784C34.0383 32.648 33.4668 33.3153 32.6996 33.3898C32.6996 33.3898 30.8177 33.6101 28.7262 33.7197L41.3696 71.33L48.9695 48.5413L43.5597 33.7199C41.689 33.6103 39.918 33.3901 39.918 33.3901C39.1291 33.3138 38.5513 32.6124 38.6274 31.8235C38.7016 31.0557 39.3692 30.484 40.139 30.5285C40.139 30.5285 45.8717 30.9703 49.2831 30.9703C52.9142 30.9703 58.5385 30.5285 58.5385 30.5285C59.3297 30.4822 60.009 31.0862 60.0553 31.8774C60.1003 32.648 59.528 33.3163 58.7598 33.3901C58.7598 33.3901 56.8763 33.6103 54.7864 33.7199L67.3342 71.0439L70.916 59.6937C72.3147 56.0232 73.1654 52.1665 73.4405 48.2481ZM80.7032 36.9121C80.6429 41.1901 79.7457 45.4153 78.0619 49.3485L67.457 80.0105C83.7222 70.5491 89.4922 49.8546 80.4695 33.342C80.6275 34.5253 80.7055 35.7181 80.7032 36.9121ZM50 8.33386C26.9882 8.33386 8.33333 26.9887 8.33333 50.0005C8.33333 73.0123 26.9882 91.6672 50 91.6672C73.0118 91.6672 91.6667 73.0123 91.6667 50.0005C91.6667 26.9887 73.0118 8.33386 50 8.33386ZM65.2445 86.0901C53.051 91.2504 39.0745 89.8918 28.1031 82.4796C21.8053 78.2277 16.8755 72.2412 13.9099 65.2451C8.74838 53.0515 10.1074 39.0745 17.5212 28.1037C21.7723 21.8053 27.7588 16.8749 34.7555 13.9107C46.949 8.75045 60.9255 10.109 71.8969 17.5212C78.1947 21.7731 83.1245 27.7596 86.0901 34.7557C91.2516 46.9493 89.8926 60.9263 82.4788 71.8972C78.2278 78.1955 72.2412 83.1259 65.2445 86.0901Z" fill="#E5E3E3"/>
</svg>
